<svg width="136" height="40" viewBox="0 0 136 40" fill="none" xmlns="http://www.w3.org/2000/svg">
<path d="M47.5921 31.0293H45.7791V32.3135H47.5921V32.9178H45.7791V35.1086H45.0992V30.4249H47.5921V31.0293Z" fill="#002F6C"/>
<path d="M49.4806 30.425C51.0671 30.2739 51.5959 32.3135 50.2361 32.8423C50.916 33.3711 51.2181 34.2777 51.898 35.0331H51.067C50.5382 34.2021 49.7073 32.6913 48.9518 32.9934V35.0331H48.3475V30.425H49.4806ZM48.9518 32.4646C50.7649 32.7668 50.6893 30.6516 48.9518 31.0293V32.4646Z" fill="#002F6C"/>
<path d="M54.2399 30.4249C57.4882 30.3494 57.5638 35.2597 54.2399 35.1842C50.916 35.1842 50.9915 30.3494 54.2399 30.4249ZM54.2399 34.5043C56.5817 34.5798 56.5817 30.8782 54.2399 30.9537C51.8225 30.9537 51.8225 34.5798 54.2399 34.5043Z" fill="#002F6C"/>
<path d="M61.7186 35.1086H61.0387V31.4825L59.6034 33.2956H59.4523L58.017 31.4825V35.1086H57.3371V30.4249H58.017L59.5279 32.389L61.1143 30.4249H61.7186V35.1086Z" fill="#002F6C"/>
<path d="M67.8376 31.0293H66.2512V35.1086H65.5713V31.0293H63.9849V30.4249H67.8376V31.0293Z" fill="#002F6C"/>
<path d="M72.3701 35.1086H71.6902V33.0689H69.0462V35.1086H68.4419V30.4249H69.0462V32.4646H71.6902V30.4249H72.3701V35.1086Z" fill="#002F6C"/>
<path d="M75.9962 31.0293H74.0321V32.4646H75.9207V33.0689H74.0321V34.5042H76.0718V35.1086H73.3522V30.4249H75.9962V31.0293Z" fill="#002F6C"/>
<path d="M82.5685 35.1086H81.8886L81.2842 33.7488H79.3201L78.7158 35.1086H78.0359L80 30.4249H80.4533L82.5685 35.1086ZM79.5467 33.1445H80.9821L80.2266 31.4825L79.5467 33.1445Z" fill="#002F6C"/>
<path d="M87.3276 35.1086H86.6478V31.4825L85.2124 33.2956H85.1369L83.7016 31.4825H83.626V35.1086H83.0217V30.4249H83.626L85.1369 32.389L86.7233 30.4249H87.3276V35.1086Z" fill="#002F6C"/>
<path d="M90.9537 31.0293H88.9896V32.4646H90.8782V33.0689H88.9896V34.5042H91.0293V35.1086H88.3097V30.4249H90.9537V31.0293Z" fill="#002F6C"/>
<path d="M92.9179 30.425C94.5043 30.2739 95.0331 32.3135 93.6733 32.8423C94.3532 33.3711 94.6553 34.2777 95.3352 35.0331H94.5043C93.9755 34.2021 93.1445 32.6913 92.3891 32.9934V35.0331H91.7092V30.425H92.9179ZM92.3891 32.4646C94.2021 32.7668 94.1265 30.6516 92.3891 31.0293V32.4646Z" fill="#002F6C"/>
<path d="M96.3173 30.4249H95.6374V35.033H96.3173V30.4249Z" fill="#002F6C"/>
<path d="M101.152 31.4826C96.6195 28.9897 96.695 36.6195 101.228 33.9755V34.7309C95.7885 37.1483 95.7885 28.3853 101.152 30.7272V31.4826Z" fill="#002F6C"/>
<path d="M105.911 35.1086H105.231L104.627 33.7488H102.663L102.059 35.1086H101.379L103.343 30.4249H103.796L105.911 35.1086ZM102.89 33.1445H104.325L103.569 31.4825L102.89 33.1445Z" fill="#002F6C"/>
<path d="M110.67 35.1086H110.066L106.969 31.5581V35.1086H106.364V30.4249H106.893L109.991 34.051V30.4249H110.67V35.1086Z" fill="#002F6C"/>
<path d="M115.127 30.4249C117.696 30.576 116.638 33.6733 114.372 33.0689V35.1086H113.692V30.5005H115.127V30.4249ZM114.372 32.4646C116.412 32.8423 116.563 30.6516 114.372 31.0293V32.4646Z" fill="#002F6C"/>
<path d="M119.811 31.0293H117.847V32.4646H119.736V33.0689H117.847V34.5042H119.887V35.1086H117.167V30.4249H119.811V31.0293Z" fill="#002F6C"/>
<path d="M122.908 30.4249C126.157 30.3494 126.232 35.2597 122.908 35.1842C119.585 35.1842 119.66 30.3494 122.908 30.4249ZM122.908 34.5043C125.25 34.5798 125.25 30.8782 122.908 30.9537C120.491 30.9537 120.491 34.5798 122.908 34.5043Z" fill="#002F6C"/>
<path d="M127.441 30.4249C130.009 30.576 128.952 33.6733 126.686 33.0689V35.1086H126.006V30.5005H127.441V30.4249ZM126.686 32.4646C128.725 32.8423 128.876 30.6516 126.686 31.0293V32.4646Z" fill="#002F6C"/>
<path d="M130.161 34.5042H132.276V35.1086H129.481V30.4249H130.161V34.5042Z" fill="#002F6C"/>
<path d="M135.448 31.0293H133.409V32.4646H135.373V33.0689H133.409V34.5042H135.448V35.1086H132.804V30.4249H135.448V31.0293Z" fill="#002F6C"/>
<path d="M64.5137 6.85547C64.2871 15.2407 66.9311 27.0254 54.8442 26.4966C42.7573 26.9499 45.3258 14.9386 45.1747 6.85547H50.0094C50.6893 11.0103 47.441 22.9461 54.8442 22.4929C62.0963 23.2483 59.2257 11.0103 59.7545 6.85547H64.5137Z" fill="#002F6C"/>
<path d="M81.4353 11.9169C77.9603 10.4816 73.7299 8.74408 72.4457 11.7658C72.4457 14.712 82.3418 13.881 82.3418 20.6799C82.7195 27.4787 71.7658 27.6298 67.9131 24.6836V20.5288C71.0859 22.7195 76.2228 24.7592 77.356 21.2087C77.356 18.0359 67.4598 19.169 67.4598 12.2191C67.3843 6.10008 76.525 5.57128 81.4353 8.13974V11.9169Z" fill="#002F6C"/>
<path d="M105.307 26.27H100.094L98.508 22.4173H89.8206L88.3853 26.27H83.2484L91.1048 6.85547H96.695L105.307 26.27ZM93.9755 11.4636L91.1048 19.0179H97.0727L93.9755 11.4636Z" fill="#BA0C2F"/>
<path d="M112.257 6.85547H107.422V26.27H112.257V6.85547Z" fill="#BA0C2F"/>
<path d="M124.948 6.85551C139.377 6.62888 139.377 27.0255 124.419 26.2701H116.412V6.85551H124.948ZM121.246 22.7195C126.534 23.3239 130.992 21.4353 130.689 16.6006C130.992 11.4636 126.232 9.87723 121.246 10.4816V22.7195Z" fill="#BA0C2F"/>
<path d="M0.151085 20C0.604343 -6.44009 39.9622 -6.44009 40.4155 20C39.9622 46.44 0.604343 46.44 0.151085 20Z" fill="white"/>
<path d="M20.321 36.0151C41.3975 35.6374 41.3975 4.28702 20.321 3.9093C-0.830983 4.28702 -0.830983 35.6374 20.321 36.0151Z" fill="white"/>
<path d="M0 20C0.453258 46.6667 40.1133 46.6667 40.5666 20C40.1133 -6.66667 0.453258 -6.66667 0 20ZM0.302172 20C0.75543 -6.21341 39.7356 -6.21341 40.1889 20C39.8111 46.2134 0.830973 46.2134 0.302172 20Z" fill="#002F6C"/>
<path d="M4.07932 20C4.45704 41.3032 36.1095 41.3032 36.4873 20C36.1095 -1.30307 4.45704 -1.30307 4.07932 20ZM4.38149 20C4.75921 -0.849816 35.7318 -0.849816 36.1095 20C35.8074 40.8499 4.75921 40.8499 4.38149 20Z" fill="#002F6C"/>
<path d="M29.5373 25.7412H11.0293V28.6118H29.5373V25.7412Z" fill="#002F6C"/>
<path d="M29.6128 8.8197H11.0293V14.1833H29.6128V8.8197Z" fill="#002F6C"/>
<path d="M29.6128 8.8197H11.0293V14.1833H29.6128V8.8197Z" fill="#002F6C"/>
<path d="M38.3758 16.6761V17.5071L37.9225 16.8272L37.1671 17.1294L37.6204 16.4495L37.1671 15.8451L37.9225 16.1473L38.3758 15.4674V16.2228L39.1312 16.525L38.3758 16.6761Z" fill="#002F6C"/>
<path d="M2.03965 16.2228V15.4674L2.49291 16.1473L3.24834 15.8451L2.79508 16.4495L3.24834 17.1294L2.49291 16.8272L2.03965 17.5071V16.7516L1.35976 16.4495L2.03965 16.2228Z" fill="#002F6C"/>
<path d="M3.55052 10.4816C4.30595 10.8593 5.74127 11.3881 5.06138 12.4457C4.60813 13.6544 3.3239 12.8234 2.56847 12.4457L2.7951 11.9169C3.24835 12.068 4.30595 12.9745 4.60813 12.2191C5.06138 11.5392 3.62607 11.1615 3.24835 10.9348L3.55052 10.4816Z" fill="#002F6C"/>
<path d="M7.0255 9.2729L6.72333 9.65061L4.83475 9.87724L6.04344 10.7082L5.74127 11.1615L3.92824 9.87724L4.15487 9.42398L5.9679 9.2729L4.83475 8.51747L5.21247 8.06421L7.0255 9.2729Z" fill="#002F6C"/>
<path d="M5.96426 7.14543L5.61573 7.54309L7.26317 8.98701L7.6117 8.58935L5.96426 7.14543Z" fill="#002F6C"/>
<path d="M8.15865 5.49579L7.62985 6.10014L8.83854 7.38437L8.46082 7.76208L7.17659 6.47785L6.64779 7.00665L6.34562 6.70448L7.93202 5.26917L8.15865 5.49579Z" fill="#002F6C"/>
<path d="M10.9537 5.72235L9.66951 6.70441L8.30974 4.89138L9.66951 3.98486L9.89614 4.28703L8.98962 4.89138L9.2918 5.26909L10.1228 4.66475L10.3494 5.04246L9.51843 5.57127L9.8206 6.02452L10.7271 5.42018L10.9537 5.72235Z" fill="#002F6C"/>
<path d="M11.0293 3.15391C12.4646 2.32294 13.5977 4.3626 12.0113 5.11803L11.1804 5.57129L10.1228 3.60717L11.0293 3.15391ZM11.5581 4.8914C12.9934 4.43814 12.0113 2.70066 10.8782 3.68272L11.5581 4.8914Z" fill="#002F6C"/>
<path d="M15.1841 2.02077C14.7309 2.02077 14.2021 1.94523 14.2021 2.32294C14.2776 2.62511 15.3352 2.17185 15.5619 2.92728C15.864 3.68271 14.6553 4.06043 14.1265 3.90934L13.9755 3.45608C14.4287 3.53163 15.1086 3.60717 15.1086 3.15391C15.0331 2.7762 13.9755 3.305 13.7488 2.54957C13.5222 1.86968 14.5043 1.49197 15.1086 1.64305L15.1841 2.02077Z" fill="#002F6C"/>
<path d="M17.677 1.26529L16.9216 1.49192L17.2993 3.22941L16.695 3.30495L16.3928 1.56746L15.5618 1.71855L15.4863 1.34083L17.6015 0.887573L17.677 1.26529Z" fill="#002F6C"/>
<path d="M20.17 2.92732H19.6412L19.4146 2.47406L18.4325 2.5496L18.2814 3.00286L17.6771 3.0784L18.3569 0.812115L18.9613 0.736572L20.17 2.92732ZM18.8102 1.34092L18.508 2.24743L19.1879 2.17189L18.8102 1.34092Z" fill="#002F6C"/>
<path d="M22.0586 1.18983H21.3031L21.2276 3.00286L20.6988 2.92732L20.7743 1.18983L19.9434 1.11429V0.736572L22.1341 0.812115L22.0586 1.18983Z" fill="#002F6C"/>
<path d="M23.8716 3.30495L22.2852 3.07832L22.6629 0.887573L24.2493 1.1142L24.1738 1.56746L23.1162 1.34083L23.0406 1.79409L24.0227 2.02072L23.9471 2.39843L22.9651 2.24735L22.8895 2.77615L23.9471 2.92723L23.8716 3.30495Z" fill="#002F6C"/>
<path d="M26.1379 2.24736C25.8357 1.94519 25.3824 1.64302 25.1558 1.94519C25.0803 2.24736 26.1379 2.47399 25.9868 3.22942C25.8357 3.98485 24.627 3.68268 24.2493 3.22942L24.4004 2.77616C24.7026 3.07834 25.1558 3.53159 25.3824 3.15388C25.458 2.77616 24.3248 2.62508 24.5515 1.86965C24.7026 1.18976 25.7602 1.41639 26.2134 1.86965L26.1379 2.24736Z" fill="#002F6C"/>
<path d="M28.6308 5.118L28.102 4.89137V4.43812L27.1954 3.98486L26.8933 4.28703L26.3645 4.0604L28.102 2.474L28.7063 2.70063L28.6308 5.118ZM28.1775 3.0028L27.4976 3.60714L28.102 3.90932L28.1775 3.0028Z" fill="#002F6C"/>
<path d="M31.2748 4.96693C30.5194 3.22944 28.4042 4.89139 30.2927 5.57127L30.4438 5.34465L30.1417 5.19356L30.3683 4.89139L31.1237 5.34465L30.5949 6.10008C27.4977 5.87345 29.6884 1.94521 31.5014 4.58922L31.2748 4.96693Z" fill="#002F6C"/>
<path d="M32.0302 7.6109L30.8215 6.5533L32.2569 4.89136L33.4655 5.94896L33.2389 6.25113L32.4079 5.57124L32.1058 5.94896L32.8612 6.5533L32.6346 6.85548L31.8036 6.25113L31.5014 6.62885L32.3324 7.30873L32.0302 7.6109Z" fill="#002F6C"/>
<path d="M33.7677 9.57503L33.4655 9.19731L33.6921 7.30874L32.6345 8.2908L32.3324 7.83754L33.9943 6.40222L34.2965 6.77994L34.0698 8.59297L35.0519 7.68645L35.4296 8.06417L33.7677 9.57503Z" fill="#002F6C"/>
<path d="M35.2785 11.4636C32.6345 9.8772 36.3361 7.45982 36.7894 10.406L36.4117 10.7082C36.2606 8.44188 33.6166 10.1794 35.6563 11.237L35.2785 11.4636Z" fill="#002F6C"/>
<path d="M36.4872 12.068L37.2426 10.7838L37.4693 11.3882L37.0916 12.068L37.9225 12.2191L38.2247 12.8235L36.7894 12.5213L35.8073 12.9746L35.5807 12.5213L36.4872 12.068Z" fill="#002F6C"/>
<path d="M3.3137 20.4119L1.12449 20.4955L1.14465 21.0239L3.33387 20.9404L3.3137 20.4119Z" fill="#002F6C"/>
<path d="M1.43532 23.9282V23.4749L2.64401 22.0396L1.20869 22.2663L1.13315 21.6619L3.32389 21.3597L3.39944 21.8885L2.26629 23.2483L3.55052 23.0217L3.62607 23.5505L1.43532 23.9282Z" fill="#002F6C"/>
<path d="M3.92823 25.9678L3.7016 25.2124L1.96411 25.7412L1.81303 25.2124L3.55051 24.6836L3.32389 23.9282L3.7016 23.7771L4.30594 25.8923L3.92823 25.9678Z" fill="#002F6C"/>
<path d="M3.09727 28.4609L2.41738 27.0255L4.45704 26.119L5.06138 27.5543L4.68367 27.7054L4.30596 26.7989L3.8527 26.95L4.23041 27.8565L3.92824 28.0076L3.47498 27.1011L3.02172 27.3277L3.39944 28.3098L3.09727 28.4609Z" fill="#002F6C"/>
<path d="M5.74126 28.763C6.11897 29.3673 5.51463 30.0472 4.91028 29.6695C4.91028 29.8961 4.7592 30.1228 4.30594 30.7271L4.00377 30.1983C4.38148 29.6695 4.68366 29.4429 4.38148 29.0652L3.62605 29.5184L3.32388 29.0652L5.21246 27.932L5.74126 28.763ZM4.7592 28.8385C4.98583 29.594 5.74126 29.2162 5.21246 28.6119L4.7592 28.8385Z" fill="#002F6C"/>
<path d="M5.96789 32.8422L5.66572 32.4645L6.04343 30.6515L4.91029 31.4825L4.60812 31.1048L6.3456 29.6694L6.64778 30.1227L6.3456 31.8602L7.40321 31.0292L7.70538 31.4069L5.96789 32.8422Z" fill="#002F6C"/>
<path d="M8.15864 34.8819L7.70539 34.5042L7.85647 34.0509L7.10104 33.3711L6.64778 33.5977L6.19453 33.22L8.38527 32.2379L8.83853 32.6912L8.15864 34.8819ZM8.30973 32.7667L7.5543 33.22L8.0831 33.6732L8.30973 32.7667Z" fill="#002F6C"/>
<path d="M10.8782 34.6554L10.1983 34.1266L9.1407 35.6374L8.68744 35.2597L9.74504 33.8244L9.1407 33.3711L9.36733 32.9934L11.1048 34.2776L10.8782 34.6554Z" fill="#002F6C"/>
<path d="M11.3483 34.4822L10.226 36.3636L10.6801 36.6346L11.8024 34.7531L11.3483 34.4822Z" fill="#002F6C"/>
<path d="M12.3135 37.4504C10.8026 36.7705 11.7092 34.7309 13.22 35.4108C14.8064 36.1662 13.8244 38.1303 12.3135 37.4504ZM13.0689 35.864C12.238 35.4108 11.6336 36.7705 12.5401 37.0727C13.3711 37.526 13.9754 36.1662 13.0689 35.864Z" fill="#002F6C"/>
<path d="M16.2417 38.8102L15.7885 38.6592L15.033 36.9972L14.6553 38.357L14.1265 38.2059L14.6553 36.0907L15.1841 36.1662L15.9396 37.8282L16.3173 36.4684L16.8461 36.6195L16.2417 38.8102Z" fill="#002F6C"/>
<path d="M19.2635 39.1879L18.6591 39.1123L18.508 38.6591L17.526 38.508L17.2994 38.8857L16.695 38.8102L17.8282 36.6949L18.4325 36.7705L19.2635 39.1879ZM18.1303 37.3748L17.6771 38.2058L18.357 38.2814L18.1303 37.3748Z" fill="#002F6C"/>
<path d="M21.3787 39.1879H19.6412V36.9972H20.2455V38.7347H21.3787V39.1879Z" fill="#002F6C"/>
<path d="M23.4183 36.6949C25.0047 36.3927 25.458 38.659 23.7205 38.8857L22.8139 39.0368L22.4362 36.846L23.4183 36.6949ZM23.2672 38.508C24.7781 38.508 24.3248 36.6194 23.0406 37.1482L23.2672 38.508Z" fill="#002F6C"/>
<path d="M27.1199 37.9792L25.5335 38.508L24.8537 36.3928L26.4401 35.864L26.5156 36.2417L25.5335 36.6194L25.6846 36.9972L26.6667 36.695L26.7422 37.0727L25.8357 37.4504L25.9868 37.9037L26.9689 37.6015L27.1199 37.9792Z" fill="#002F6C"/>
<path d="M28.6308 37.2993L28.4797 37.4504L26.5156 35.864L27.0444 35.6374L28.102 36.4684V35.1086L28.6308 34.882V37.2993Z" fill="#002F6C"/>
<path d="M31.3504 35.7885L29.915 36.6194L28.7819 34.8064L30.1417 33.8999L30.3683 34.2776L29.4618 34.8064L29.6884 35.1841L30.5194 34.6553L30.746 35.033L29.915 35.5618L30.2172 36.0151L31.1237 35.4108L31.3504 35.7885Z" fill="#002F6C"/>
<path d="M33.0878 34.3532L31.8036 35.4108L30.4438 33.6733L30.8215 33.3711L31.9547 34.7309L32.8612 34.051L33.0878 34.3532Z" fill="#002F6C"/>
<path d="M34.2965 33.22C33.1633 34.4287 31.5014 32.9178 32.6345 31.6336C33.8432 30.4249 35.4296 32.0113 34.2965 33.22ZM33.0123 31.9358C32.3324 32.5401 33.39 33.5977 33.9943 32.8423C34.6742 32.2379 33.6166 31.2559 33.0123 31.9358Z" fill="#002F6C"/>
<path d="M34.2965 29.6695C35.203 28.6875 36.034 30.0473 35.1275 30.8027L35.8829 31.3315L35.5807 31.7092L33.7677 30.425L34.2965 29.6695ZM34.8253 30.5761C35.3541 30.0473 34.7498 29.5185 34.372 30.2739L34.8253 30.5761Z" fill="#002F6C"/>
<path d="M35.7318 27.101L35.9584 26.7233L37.9226 27.7053L37.6959 28.2341L36.4872 27.5542L36.7894 28.3852V28.4608L35.8829 28.6874L37.0916 29.3673L36.865 29.8205L34.9008 28.8385L35.1275 28.3852L36.1851 28.1586L35.7318 27.101Z" fill="#002F6C"/>
<path d="M38.7535 25.5146L38.2247 27.0255L36.1095 26.3456L36.6383 24.8347L37.016 24.9103L36.6383 25.9679L37.0916 26.1189L37.3938 25.1369L37.7715 25.288L37.4693 26.1945L37.9981 26.4211L38.3003 25.3635L38.7535 25.5146Z" fill="#002F6C"/>
<path d="M39.3579 22.7195L39.2068 23.1728L37.6204 24.0793L38.9802 24.3814L38.9046 24.9102L36.7139 24.457L36.865 24.0037L38.3758 23.0972L37.0916 22.795L37.1672 22.2662L39.3579 22.7195Z" fill="#002F6C"/>
<path d="M37.6959 19.9244V20.6799L39.4334 20.831V21.3598L37.6204 21.2842V22.0396H37.1671L37.3182 19.9244H37.6959Z" fill="#002F6C"/>
<path fill-rule="evenodd" clip-rule="evenodd" d="M17.3749 21.813C17.2994 21.7375 17.2238 21.6619 17.2238 21.7375C17.2994 21.7375 17.2238 21.813 17.2238 21.8886C17.1483 21.8886 17.1483 21.9641 17.0727 21.9641C17.2238 21.9641 17.2994 21.9641 17.3749 21.813C17.3749 21.8886 17.3749 21.8886 17.3749 21.813C17.3749 21.8886 17.3749 21.8886 17.3749 21.813C17.4504 21.8886 17.3749 21.8886 17.3749 21.813Z" fill="#002F6C"/>
<path fill-rule="evenodd" clip-rule="evenodd" d="M18.3569 16.6762C18.4325 16.7517 18.508 16.9028 18.5836 16.9783C18.5836 16.9028 18.5836 16.7517 18.508 16.6762C18.4325 16.6006 18.3569 16.6762 18.3569 16.6762Z" fill="#002F6C"/>
<path fill-rule="evenodd" clip-rule="evenodd" d="M18.5836 17.2805C18.508 17.4316 18.1303 17.7337 18.2814 17.356C18.1303 17.4316 18.0548 17.5827 17.9037 17.6582C17.9037 17.6582 17.9037 17.6582 17.8281 17.6582C17.9037 17.8093 18.2814 17.6582 18.3569 17.5827C18.3569 17.5071 18.4325 17.5071 18.4325 17.4316C18.4325 17.4316 18.4325 17.4316 18.4325 17.356C18.4325 17.2805 18.508 17.2049 18.508 17.1294C18.5836 17.2049 18.5836 17.2049 18.5836 17.2805Z" fill="#002F6C"/>
<path fill-rule="evenodd" clip-rule="evenodd" d="M17.9037 17.356C17.8282 17.4315 17.6771 17.507 17.6015 17.6581C17.6015 17.6581 17.6015 17.6581 17.6015 17.7337C17.7526 17.7337 17.8282 17.507 17.9037 17.356Z" fill="#002F6C"/>
<path fill-rule="evenodd" clip-rule="evenodd" d="M17.526 17.5071C17.4504 17.5826 17.2993 17.6582 17.2993 17.7337H17.3749C17.4504 17.6582 17.526 17.5826 17.526 17.5071Z" fill="#002F6C"/>
<path fill-rule="evenodd" clip-rule="evenodd" d="M17.2238 17.5071C17.1483 17.5826 17.0727 17.5826 17.0727 17.5826C17.0727 17.6582 17.1483 17.6582 17.2238 17.5071C17.2238 17.5826 17.2238 17.5826 17.2238 17.5071C17.2238 17.5826 17.2238 17.5826 17.2238 17.5071C17.2238 17.5826 17.2238 17.5826 17.2238 17.5071C17.2238 17.5826 17.2238 17.5826 17.2238 17.5071Z" fill="#002F6C"/>
<path fill-rule="evenodd" clip-rule="evenodd" d="M27.8753 17.8092C27.7998 17.8092 27.6487 17.8847 27.6487 17.9603C27.7243 17.8847 27.7998 17.8092 27.8753 17.8092Z" fill="#002F6C"/>
<path fill-rule="evenodd" clip-rule="evenodd" d="M28.2531 17.8092C28.2531 17.8847 28.1775 17.8847 28.2531 17.8092C28.2531 17.8847 28.3286 17.8092 28.4042 17.8092C28.3286 17.8092 28.3286 17.8092 28.2531 17.8092Z" fill="#002F6C"/>
<path fill-rule="evenodd" clip-rule="evenodd" d="M20.2455 18.4136C20.1699 18.338 20.1699 18.338 20.0944 18.2625C19.8678 18.0359 19.49 17.9603 19.1879 17.9603C19.339 17.9603 19.4145 18.0359 19.49 18.1114V18.187C19.49 18.2625 19.4145 18.338 19.339 18.338C19.4145 18.2625 19.5656 18.187 19.6411 18.187V18.2625C19.6411 18.338 19.5656 18.338 19.5656 18.4136H19.6411C19.7167 18.4136 19.7922 18.2625 19.8678 18.2625C19.8678 18.338 19.8678 18.338 19.8678 18.4136C19.8678 18.4891 19.7922 18.5647 19.7167 18.5647C19.7922 18.4891 19.8678 18.4891 19.9433 18.4136C20.0188 18.338 20.0944 18.338 20.0944 18.4891C20.1699 18.4891 20.1699 18.4136 20.2455 18.4136C20.2455 18.4136 20.321 18.4136 20.321 18.338C20.321 18.4891 20.321 18.4136 20.2455 18.4136Z" fill="#002F6C"/>
<path fill-rule="evenodd" clip-rule="evenodd" d="M25.3069 18.187C25.2313 18.187 25.2313 18.2626 25.1558 18.2626C25.0802 18.2626 25.0802 18.3381 25.0802 18.3381C25.1558 18.3381 25.2313 18.3381 25.2313 18.2626C25.2313 18.2626 25.3069 18.2626 25.3069 18.187C25.3069 18.2626 25.3069 18.187 25.3069 18.187Z" fill="#002F6C"/>
<path fill-rule="evenodd" clip-rule="evenodd" d="M20.2455 18.7914C19.9433 18.8669 19.9433 19.018 20.2455 18.8669C20.321 18.7914 20.3966 18.7158 20.3966 18.7158C20.3966 18.7158 20.321 18.7914 20.2455 18.7914Z" fill="#002F6C"/>
<path fill-rule="evenodd" clip-rule="evenodd" d="M15.7885 19.2445C15.7129 19.2445 15.7129 19.2445 15.7885 19.2445C15.7129 19.2445 15.7129 19.2445 15.7885 19.2445C15.7129 19.2445 15.7129 19.2445 15.6374 19.3201C15.4863 19.3956 14.9575 19.8489 15.3352 19.6222C15.3352 19.6222 15.3352 19.6222 15.4107 19.6222C15.4863 19.5467 15.6374 19.4711 15.7129 19.3956C15.7885 19.3201 15.7885 19.2445 15.7885 19.2445Z" fill="#002F6C"/>
<path fill-rule="evenodd" clip-rule="evenodd" d="M16.0906 19.2445C16.0906 19.2445 16.0906 19.32 16.0906 19.2445C16.0151 19.32 16.0151 19.3201 15.9396 19.3201C15.7885 19.3956 15.5618 19.4711 15.5618 19.6222C15.5618 19.6222 15.5618 19.6222 15.6374 19.6222C15.7885 19.5467 16.0151 19.4711 16.0906 19.2445C16.1662 19.32 16.0906 19.2445 16.0906 19.2445Z" fill="#002F6C"/>
<path fill-rule="evenodd" clip-rule="evenodd" d="M16.1662 19.5468H16.0906C16.0151 19.6223 15.9395 19.6978 15.864 19.6978C15.9395 19.6978 16.0151 19.6223 16.1662 19.5468Z" fill="#002F6C"/>
<path fill-rule="evenodd" clip-rule="evenodd" d="M25.0803 19.6223C24.8536 19.6979 24.5515 19.6223 24.3248 19.6223H24.2493C24.2493 19.6223 24.2493 19.6979 24.3248 19.6979C24.4759 19.8489 24.8536 19.7734 25.0803 19.6223C25.1558 19.6979 25.1558 19.6223 25.0803 19.6223Z" fill="#002F6C"/>
<path fill-rule="evenodd" clip-rule="evenodd" d="M17.3749 19.6223C17.2993 19.6979 17.1482 19.7734 16.9971 19.8489H16.9216C16.7705 19.9245 16.6194 20.0756 16.9216 19.9245C16.9971 19.9245 16.9971 19.8489 17.0727 19.8489C17.0727 19.8489 17.0727 19.8489 17.0727 19.7734C17.1482 19.7734 17.4504 19.6979 17.3749 19.6223Z" fill="#002F6C"/>
<path fill-rule="evenodd" clip-rule="evenodd" d="M22.1341 19.7733C22.0585 19.8489 21.7564 19.9244 21.7564 19.9999C21.9074 19.9999 21.983 19.9244 22.0585 19.7733C22.0585 19.8489 22.0585 19.8489 22.1341 19.7733C22.2096 19.7733 22.2096 19.7733 22.1341 19.7733Z" fill="#002F6C"/>
<path fill-rule="evenodd" clip-rule="evenodd" d="M16.3928 19.7733C16.3928 19.6978 16.3173 19.7733 16.3173 19.7733C16.2417 19.8489 16.0907 19.9244 16.0151 20.0755C15.9396 20.0755 15.9396 20.151 15.9396 20.151C15.9396 20.151 15.9396 20.151 16.0151 20.151H16.0907C16.2417 20.0755 16.3173 19.9999 16.3928 19.9244C16.3928 19.8489 16.4684 19.7733 16.3928 19.7733Z" fill="#002F6C"/>
<path fill-rule="evenodd" clip-rule="evenodd" d="M17.9792 19.8489C17.9037 19.8489 17.8281 19.9244 17.7526 19.9244C17.7526 19.9244 17.677 20 17.7526 20C17.8281 20 17.8281 19.9244 17.8281 19.9244C17.9037 19.9244 17.9792 19.9244 17.9792 19.8489Z" fill="#002F6C"/>
<path fill-rule="evenodd" clip-rule="evenodd" d="M22.2096 19.9244C22.1341 20 21.983 20 21.9075 20.0755V20.1511C21.983 20.2266 22.0586 20.0755 22.1341 20.0755C22.2096 20 22.2852 19.9244 22.3607 19.9244C22.2852 19.9244 22.2852 19.9244 22.2096 19.9244Z" fill="#002F6C"/>
<path fill-rule="evenodd" clip-rule="evenodd" d="M22.5118 20C22.4362 20 22.4362 20.0756 22.3607 20.0756C22.2852 20.1511 22.1341 20.1511 22.0585 20.2266C22.0585 20.2266 21.983 20.3022 22.0585 20.3022C22.1341 20.3022 22.2096 20.3022 22.2096 20.2266L22.2852 20.1511C22.4362 20.1511 22.5118 20.0756 22.5118 20C22.5873 19.9245 22.5873 19.9245 22.5118 20C22.5118 19.9245 22.5118 20 22.5118 20Z" fill="#002F6C"/>
<path fill-rule="evenodd" clip-rule="evenodd" d="M12.2379 21.2087C12.3135 21.2087 12.389 21.1332 12.4646 21.1332C12.4646 21.1332 12.4646 21.0576 12.5401 21.0576C12.6157 20.9821 12.6912 20.9066 12.8423 20.831L12.9178 20.7555C12.9178 20.7555 12.9178 20.6799 12.9934 20.6799C13.0689 20.6044 13.22 20.5288 13.22 20.4533C13.3711 20.3778 13.4466 20.2267 13.5977 20.1511C13.5977 20.1511 13.5222 20.1511 13.5222 20.2267C13.5222 20.2267 13.4466 20.2267 13.4466 20.3022C13.3711 20.3778 13.2955 20.4533 13.22 20.5288C13.1445 20.5288 13.1445 20.6044 13.0689 20.6044C12.9934 20.6044 12.9934 20.6799 12.9178 20.6799C12.8423 20.6799 12.8423 20.7555 12.7667 20.7555H12.6912C12.6157 20.831 12.5401 20.831 12.5401 20.9066C12.4646 20.9821 12.389 21.0576 12.3135 21.2087C12.1624 21.2087 12.2379 21.2087 12.2379 21.2087Z" fill="#002F6C"/>
<path fill-rule="evenodd" clip-rule="evenodd" d="M27.271 20.3021C27.1199 20.3776 27.0444 20.5287 26.8933 20.6043C26.8933 20.6043 26.8933 20.6043 26.8177 20.6798C26.6667 20.7554 26.5911 20.9064 26.44 20.982L26.3645 21.0575C26.2889 21.0575 26.2889 21.1331 26.2134 21.1331C26.1379 21.1331 26.1379 21.2086 26.0623 21.2086C26.6667 21.4353 27.1199 20.9064 27.5732 20.4532C27.5732 20.3776 27.6487 20.3776 27.7243 20.3021C27.6487 20.3021 27.6487 20.3776 27.5732 20.3776C27.4976 20.4532 27.4221 20.5287 27.3465 20.6043C27.271 20.6798 27.1955 20.7554 27.1199 20.7554C27.1199 20.7554 27.1199 20.7554 27.0444 20.8309L26.9688 20.9065C26.9688 20.9065 26.8933 20.982 26.8177 20.982C26.7422 20.982 26.7422 21.0575 26.6667 21.0575C26.44 21.1331 26.5156 20.982 26.6667 20.9065C26.7422 20.8309 26.8177 20.8309 26.8933 20.7554C26.8933 20.7554 26.9688 20.7554 26.9688 20.6798C27.0444 20.6043 27.1955 20.4532 27.271 20.3776C27.1955 20.4532 27.271 20.3776 27.271 20.3021C27.271 20.3776 27.271 20.3776 27.271 20.3021C27.271 20.3776 27.271 20.3021 27.271 20.3021C27.3465 20.3021 27.3465 20.3021 27.271 20.3021C27.3465 20.3021 27.3465 20.2266 27.3465 20.2266C27.3465 20.3021 27.3465 20.3021 27.271 20.3021Z" fill="#002F6C"/>
<path fill-rule="evenodd" clip-rule="evenodd" d="M26.44 20.3021C26.1379 20.5288 25.7601 20.8309 25.458 21.1331C25.0803 21.3597 25.6846 21.2842 25.8357 21.2842C25.9868 21.2086 26.1379 20.982 26.2889 20.9065C26.44 20.7554 26.5911 20.6043 26.6667 20.4532C26.2889 20.6798 25.9868 21.1331 25.5335 21.2086C25.5335 21.1331 25.6091 21.1331 25.6091 21.1331C25.6091 21.1331 25.6091 21.1331 25.6846 21.1331C25.9868 20.7554 26.2889 20.5288 26.44 20.3021C26.5156 20.3021 26.5156 20.3021 26.44 20.3021Z" fill="#002F6C"/>
<path fill-rule="evenodd" clip-rule="evenodd" d="M12.8423 20.3021C12.7667 20.3021 12.7667 20.3021 12.8423 20.3021C12.7667 20.3777 12.6912 20.3777 12.6157 20.4532C12.5401 20.5288 12.4646 20.5288 12.4646 20.6043C12.389 20.6798 12.3135 20.6798 12.3135 20.7554C12.1624 20.9065 11.9358 21.0576 11.8602 21.2086C11.9358 21.2086 11.9358 21.2086 12.0113 21.2086C12.0869 21.2086 12.0869 21.1331 12.1624 21.1331L12.2379 21.0576C12.3135 21.0576 12.3135 20.982 12.389 20.9065C12.4646 20.8309 12.5401 20.7554 12.5401 20.7554L12.6157 20.6798C12.6912 20.5288 12.7667 20.3777 12.8423 20.3021C12.9178 20.3021 12.9178 20.3021 12.8423 20.3021Z" fill="#002F6C"/>
<path fill-rule="evenodd" clip-rule="evenodd" d="M20.6232 20.3777C20.5477 20.3777 20.4722 20.4532 20.3966 20.5288C20.3211 20.5288 20.3211 20.6043 20.3211 20.6043C20.2455 20.6043 20.2455 20.6799 20.17 20.7554H20.3211C20.4722 20.6043 20.5477 20.5288 20.6232 20.3777C20.6988 20.3777 20.6988 20.3777 20.6232 20.3777C20.6988 20.3777 20.6988 20.3777 20.6232 20.3777C20.6988 20.3777 20.6988 20.3777 20.6232 20.3777Z" fill="#002F6C"/>
<path fill-rule="evenodd" clip-rule="evenodd" d="M28.102 20.4533C28.102 20.4533 28.0265 20.4533 28.102 20.4533C28.0265 20.5288 28.0264 20.5288 28.0264 20.5288C27.8754 20.6043 27.8754 20.6799 27.7998 20.831C27.9509 20.6799 28.0265 20.5288 28.102 20.4533C28.102 20.3777 28.102 20.3777 28.102 20.4533C28.102 20.3777 28.102 20.3777 28.102 20.4533Z" fill="#002F6C"/>
<path fill-rule="evenodd" clip-rule="evenodd" d="M12.238 20.4532C12.0869 20.5288 11.9358 20.6799 11.8602 20.7554C11.7847 20.831 11.7092 20.9065 11.6336 20.9065C11.6336 20.9065 11.6336 20.9065 11.5581 20.982C11.4825 21.0576 11.407 21.1331 11.3314 21.2087C11.4825 21.2087 11.5581 21.1331 11.6336 21.0576C11.7847 20.982 11.8602 20.7554 12.0113 20.6799C12.0869 20.6043 12.1624 20.5288 12.238 20.4532Z" fill="#002F6C"/>
<path fill-rule="evenodd" clip-rule="evenodd" d="M28.4042 20.5288C28.3286 20.6044 28.2531 20.6799 28.1775 20.7554C28.102 20.831 28.0265 20.9065 27.9509 20.9821C27.7998 21.1332 27.4221 21.2087 27.4221 21.3598C27.4977 21.3598 27.5732 21.3598 27.6487 21.3598C27.6487 21.3598 27.6487 21.3598 27.7243 21.3598C27.8754 21.2842 28.0265 21.1332 28.102 21.0576C28.1775 20.9821 28.1776 20.9821 28.2531 20.9065L28.3286 20.831C28.3286 20.6799 28.3286 20.6044 28.4042 20.5288C28.4042 20.6044 28.4042 20.6044 28.4042 20.5288Z" fill="#002F6C"/>
<path fill-rule="evenodd" clip-rule="evenodd" d="M28.102 21.2843C28.1775 21.2843 28.253 21.2087 28.253 21.1332C28.253 21.1332 28.253 21.1332 28.3286 21.1332C28.4041 21.0576 28.4041 20.9821 28.4797 20.9821C28.5552 20.9065 28.6308 20.831 28.7063 20.6799C28.7063 20.6799 28.7063 20.6044 28.7818 20.6044C28.7063 20.6799 28.6308 20.7555 28.5552 20.831C28.3286 20.9821 28.1775 21.1332 27.9509 21.2843C27.8753 21.3598 27.7998 21.4353 27.7242 21.5109C27.9509 21.3598 28.0264 21.3598 28.102 21.2843Z" fill="#002F6C"/>
<path fill-rule="evenodd" clip-rule="evenodd" d="M20.9254 20.5288C20.8498 20.5288 20.8498 20.6044 20.7743 20.6044C20.7743 20.6044 20.6988 20.6044 20.6988 20.6799H20.6232C20.6232 20.6799 20.5477 20.6799 20.5477 20.7554C20.4721 20.7554 20.4721 20.831 20.4721 20.831C20.4721 20.831 20.4721 20.831 20.3966 20.9065C20.3966 20.9065 20.3966 20.9821 20.4721 20.9065H20.5477H20.6232C20.6988 20.831 20.6988 20.831 20.7743 20.7554C20.7743 20.6799 20.8498 20.6044 20.9254 20.5288C20.9254 20.6044 20.9254 20.5288 20.9254 20.5288Z" fill="#002F6C"/>
<path fill-rule="evenodd" clip-rule="evenodd" d="M21.0765 20.6799C21.0009 20.7555 20.9254 20.7555 20.8499 20.831C20.7743 20.9066 20.6988 20.9821 20.6232 20.9821C20.6988 20.9821 20.6988 21.0576 20.7743 21.0576C20.8499 20.9821 21.0009 20.9066 21.0765 20.831C21.0765 20.7555 21.152 20.6799 21.0765 20.6799C21.152 20.6799 21.152 20.6799 21.0765 20.6799C21.152 20.6799 21.0765 20.6799 21.0765 20.6799Z" fill="#002F6C"/>
<path fill-rule="evenodd" clip-rule="evenodd" d="M27.7243 20.7554C27.6487 20.8309 27.5732 20.8309 27.4976 20.9065C27.4976 20.9065 27.4221 20.9065 27.4221 20.982C27.4221 20.982 27.4221 20.982 27.3465 20.982C27.271 21.0575 27.1199 21.1331 27.0444 21.2842C27.1199 21.2086 27.271 21.1331 27.3465 21.1331C27.4221 21.0575 27.4976 20.982 27.5732 20.9065C27.7243 20.7554 27.7243 20.7554 27.7243 20.7554Z" fill="#002F6C"/>
<path fill-rule="evenodd" clip-rule="evenodd" d="M28.3286 21.4353C28.4797 21.4353 28.6308 21.2842 28.7819 21.1331C28.7819 21.1331 28.8574 21.1331 28.8574 21.0575C28.933 20.982 29.0085 20.8309 29.084 20.7554C29.084 20.7554 29.084 20.7554 29.0085 20.7554C28.933 20.8309 28.7819 20.9065 28.7063 20.982C28.7063 20.982 28.6308 20.982 28.6308 21.0575C28.5552 21.1331 28.4042 21.2086 28.3286 21.2842C28.3286 21.2842 28.3286 21.2842 28.3286 21.4353C28.2531 21.3597 28.2531 21.3597 28.3286 21.4353C28.2531 21.3597 28.2531 21.4353 28.2531 21.4353C28.2531 21.4353 28.3286 21.3597 28.3286 21.4353Z" fill="#002F6C"/>
<path fill-rule="evenodd" clip-rule="evenodd" d="M21.3031 20.8309C21.2276 20.8309 21.1521 20.9065 21.1521 20.9065C21.001 20.982 20.9254 21.0576 20.8499 21.1331C20.8499 21.1331 20.9254 21.2086 20.9254 21.1331C20.9254 21.1331 20.9254 21.1331 21.001 21.1331C21.001 21.1331 21.001 21.1331 21.0765 21.1331C21.1521 21.0576 21.1521 21.0576 21.2276 20.982C21.2276 20.9065 21.3031 20.9065 21.3031 20.8309C21.3031 20.8309 21.2276 20.8309 21.3031 20.8309C21.3031 20.8309 21.3787 20.8309 21.3031 20.8309Z" fill="#002F6C"/>
<path fill-rule="evenodd" clip-rule="evenodd" d="M21.4542 20.9821C21.3031 21.0576 21.152 21.1331 21.0009 21.2842C21.0765 21.3598 21.152 21.3598 21.152 21.2842C21.2276 21.2842 21.2276 21.2087 21.3031 21.2087C21.3031 21.2087 21.3031 21.1331 21.3787 21.1331C21.4542 21.0576 21.4542 21.0576 21.4542 20.9821C21.4542 21.0576 21.4542 21.0576 21.4542 20.9821C21.5297 20.9821 21.5297 20.9821 21.4542 20.9821Z" fill="#002F6C"/>
<path fill-rule="evenodd" clip-rule="evenodd" d="M21.9075 21.0576C21.8319 21.0576 21.8319 21.1332 21.8319 21.1332C21.7564 21.2087 21.6053 21.2842 21.5297 21.3598C21.4542 21.4353 21.4542 21.4353 21.3787 21.4353L21.3031 21.5109C21.3787 21.5109 21.4542 21.4353 21.5297 21.4353C21.6053 21.4353 21.6053 21.4353 21.6808 21.5109C21.6808 21.5109 21.6808 21.5109 21.6808 21.5864C21.6053 21.662 21.6053 21.662 21.5297 21.662C21.6808 21.662 21.7564 21.662 21.8319 21.5864C21.8319 21.5864 21.8319 21.5864 21.8319 21.662C21.7564 21.7375 21.6808 21.813 21.6808 21.813C21.8319 21.813 21.983 21.662 22.1341 21.5864L22.2096 21.5109L22.2852 21.4353C22.2096 21.5109 22.0585 21.5109 21.983 21.5109C21.983 21.4353 22.0585 21.4353 22.0585 21.3598C22.0585 21.3598 22.0585 21.2842 22.1341 21.2842L22.2096 21.2087C22.1341 21.2087 22.0585 21.3598 21.983 21.3598C21.9075 21.4353 21.8319 21.4353 21.7564 21.4353V21.3598L21.8319 21.2842C21.8319 21.1332 21.9075 21.0576 21.9075 21.0576Z" fill="#002F6C"/>
<path fill-rule="evenodd" clip-rule="evenodd" d="M19.4901 19.3201C19.5656 19.3201 19.5656 19.3201 19.4901 19.3201C19.2634 19.6222 19.5656 19.6222 19.7922 19.4711C19.7922 19.5467 19.5656 19.6978 19.6412 19.7733C19.7167 19.7733 19.7922 19.6978 19.8678 19.6978C19.8678 19.7733 19.6412 19.8489 19.7167 19.9999C19.7167 19.9999 19.7167 20.0755 19.6412 20.0755C19.6412 20.0755 19.6412 20.0755 19.6412 20.151C19.5656 20.151 19.5656 20.151 19.4901 20.151C19.4145 20.2266 19.4145 20.2266 19.339 20.3021C19.339 20.3021 19.2634 20.3021 19.2634 20.3777C19.2634 20.3777 19.2634 20.3777 19.1879 20.3777L19.1124 20.4532H19.0368H18.9613C18.9613 20.4532 19.0368 20.4532 19.0368 20.3777C19.1879 20.3021 19.2634 20.151 19.339 20.0755C19.339 19.9999 19.4901 19.9244 19.4145 19.8489C19.1879 19.9244 19.0368 20.0755 18.8857 20.2266C18.9613 20.0755 19.4145 19.8489 19.2634 19.6978C19.1879 19.7733 19.0368 19.8489 18.9613 19.9244C18.9613 19.8489 19.1879 19.6222 19.0368 19.5467C18.9613 19.5467 18.8857 19.6222 18.7346 19.6222L18.8102 19.5467C18.7346 19.5467 18.6591 19.5467 18.5836 19.5467H18.508C18.7346 19.3956 18.9613 19.3956 19.1879 19.2445C19.1124 19.4711 19.339 19.4711 19.4901 19.3201Z" fill="#002F6C"/>
<path fill-rule="evenodd" clip-rule="evenodd" d="M20.0944 19.9244C20.0189 20 19.9433 20.0755 19.9433 20.1511C19.8678 20.1511 19.8678 20.2266 19.8678 20.2266C19.8678 20.2266 19.8678 20.2266 19.7923 20.2266L19.7167 20.3022C19.6412 20.3777 19.5656 20.4532 19.4145 20.5288C19.339 20.5288 19.339 20.5288 19.339 20.6043C19.339 20.5288 19.4901 20.4532 19.4901 20.4532L19.5656 20.3777L19.6412 20.3022C19.7923 20.0755 19.9433 20 20.0944 19.9244Z" fill="#002F6C"/>
<path fill-rule="evenodd" clip-rule="evenodd" d="M14.882 20C14.8064 20.0755 14.7309 20.0755 14.6553 20.1511L14.5798 20.2266C14.5043 20.3777 14.4287 20.3777 14.3532 20.3777C14.4287 20.3022 14.5043 20.2266 14.5798 20.1511C14.6553 20.0755 14.8064 20.0755 14.882 20Z" fill="#002F6C"/>
<path fill-rule="evenodd" clip-rule="evenodd" d="M13.9754 20.0756C13.7488 20.3022 13.5222 20.5288 13.2956 20.7554L13.22 20.831C13.1445 20.831 13.1445 20.9065 13.0689 20.9821C12.9934 21.0576 12.8423 21.2087 13.0689 21.2087C13.2956 21.0576 13.4466 20.9065 13.5977 20.7554C13.6733 20.6799 13.7488 20.6044 13.8244 20.6044L13.8999 20.5288C13.8999 20.5288 13.9754 20.5288 13.9754 20.4533C13.9754 20.4533 13.9754 20.4533 14.051 20.4533C14.051 20.4533 14.051 20.4533 14.1265 20.4533C14.2021 20.3777 14.2776 20.3777 14.3532 20.3022C14.2776 20.3777 14.2021 20.3777 14.2021 20.4533C14.1265 20.4533 14.1265 20.5288 14.051 20.6044C13.8999 20.6799 13.8244 20.7554 13.7488 20.9065C13.5977 20.9821 13.4466 21.1332 13.2956 21.2842C13.0689 21.4353 12.7668 21.3598 12.5401 21.3598L12.6157 21.2842H12.6912C12.7668 21.2842 12.7668 21.2087 12.8423 21.2087C12.9178 21.2087 12.9934 21.1332 12.9934 21.1332C13.22 20.9821 13.3711 20.831 13.5977 20.6799C13.7488 20.6044 13.8999 20.4533 13.9754 20.3777C13.9754 20.3777 13.9754 20.3777 14.051 20.3777C13.8999 20.1511 13.8999 20.0756 13.9754 20.0756Z" fill="#002F6C"/>
<path fill-rule="evenodd" clip-rule="evenodd" d="M25.6091 20.6043C25.6846 20.5287 25.7601 20.5287 25.7601 20.4532C25.8357 20.4532 25.8357 20.3776 25.8357 20.3776C25.9112 20.3021 25.9868 20.2266 26.0623 20.2266C25.9868 20.3021 25.9112 20.3776 25.9112 20.3776L25.8357 20.4532C25.7601 20.4532 25.7601 20.5287 25.7601 20.5287C25.6846 20.5287 25.6846 20.5287 25.6846 20.6043C25.6846 20.6043 25.6846 20.6043 25.6091 20.6043Z" fill="#002F6C"/>
<path fill-rule="evenodd" clip-rule="evenodd" d="M11.4825 20.6799C11.2559 20.7555 11.1804 20.9821 10.9537 21.0576V21.2087H11.0293C11.0293 21.2087 11.1048 21.2087 11.1048 21.1332C11.1048 21.1332 11.1048 21.1332 11.1804 21.1332C11.2559 21.0576 11.3315 20.9821 11.3315 20.9066C11.4825 20.7555 11.4825 20.6799 11.4825 20.6799C11.5581 20.6799 11.5581 20.6799 11.4825 20.6799Z" fill="#002F6C"/>
<path fill-rule="evenodd" clip-rule="evenodd" d="M29.5373 21.662C29.3107 21.662 29.1596 21.5864 28.9329 21.5864C27.7998 21.5109 26.6667 21.4353 25.5335 21.4353C25.458 21.4353 25.3824 21.4353 25.3069 21.4353C25.3069 21.4353 25.3069 21.4353 25.2313 21.4353H25.1558C25.0803 21.4353 25.0047 21.4353 24.8536 21.4353C24.8536 21.3598 24.8536 21.3598 24.9292 21.3598C25.0047 21.3598 25.0047 21.2842 25.0047 21.2842C25.0047 21.2842 25.0803 21.2842 25.0803 21.2087C25.0803 21.1332 25.1558 21.1332 25.1558 21.1332C25.2313 21.0576 25.3824 20.9065 25.458 20.831C25.458 20.831 25.5335 20.831 25.5335 20.7554L25.6091 20.6799C25.3069 20.6799 24.7781 21.4353 24.627 21.2087C24.8536 20.9821 25.0803 20.7554 25.3069 20.5288C25.3069 20.5288 25.3069 20.5288 25.3824 20.5288C25.458 20.4533 25.458 20.3777 25.5335 20.3777L25.6091 20.3022C25.5335 20.3777 25.458 20.3777 25.3824 20.4533C25.3069 20.5288 25.3069 20.5288 25.2313 20.5288C25.1558 20.6044 25.0803 20.6799 25.0047 20.6799C25.0047 20.6799 25.0047 20.6799 24.9292 20.6799C24.8536 20.6799 24.8536 20.7554 24.7781 20.7554C24.627 20.831 24.4759 20.9821 24.2493 21.0576C24.1737 21.0576 24.0982 21.1332 24.0982 21.1332C24.0982 21.0576 24.2493 21.0576 24.3248 20.9821L24.4004 20.9065C24.5515 20.7554 24.7025 20.6044 24.8536 20.4533L24.9292 20.3777C24.9292 20.3777 24.9292 20.3777 24.9292 20.3022C24.8536 20.3777 24.7781 20.3777 24.7025 20.4533L24.627 20.5288C24.4759 20.6044 24.1737 20.9065 24.0982 20.831L24.1737 20.7554C24.2493 20.7554 24.2493 20.6799 24.3248 20.6044C24.3248 20.6044 24.4004 20.6044 24.4004 20.5288L24.4759 20.4533L24.5515 20.3777C24.5515 20.3022 24.627 20.3022 24.627 20.3022C24.627 20.3022 24.627 20.3022 24.5515 20.3022C24.4759 20.3022 24.4004 20.3777 24.3248 20.4533C24.3248 20.4533 24.3248 20.4533 24.2493 20.4533C24.1737 20.4533 24.1737 20.5288 24.0982 20.5288C24.0227 20.6044 23.9471 20.6044 23.8716 20.6044V20.5288L23.9471 20.4533C23.9471 20.4533 23.9471 20.4533 23.9471 20.3777C24.0227 20.3022 24.0982 20.2266 24.1737 20.1511C24.1737 20.1511 24.1737 20.0756 24.2493 20.0756C24.2493 20.0756 24.2493 20.0756 24.2493 20H24.1737C24.0982 20.0756 24.0982 20.0756 24.0227 20.0756L23.9471 20.1511H23.8716C23.8716 20.1511 23.8716 20.1511 23.796 20.1511C23.7205 20.2266 23.6449 20.0756 23.7205 20.0756C23.7205 20 23.796 20 23.796 20C23.8716 19.9245 23.9471 19.8489 23.9471 19.7734C23.9471 19.7734 23.8716 19.8489 23.796 19.8489C23.7205 19.8489 23.7205 19.9245 23.6449 19.9245C23.5694 20 23.4939 20 23.4939 19.9245L23.5694 19.8489C23.5694 19.8489 23.5694 19.7734 23.6449 19.7734C23.6449 19.6978 23.7205 19.6978 23.7205 19.6223C23.6449 19.6223 23.5694 19.6978 23.4939 19.6978C23.4183 19.6978 23.3428 19.6978 23.3428 19.8489C23.4183 19.9245 23.4183 20.0756 23.4939 20.1511C23.4939 20.1511 23.4939 20.1511 23.4939 20.2266C23.4939 20.3777 23.6449 20.5288 23.6449 20.6799C23.6449 20.7554 23.6449 20.831 23.6449 20.9065C23.6449 20.9821 23.5694 20.9821 23.5694 21.0576C23.5694 21.0576 23.5694 21.0576 23.5694 21.1332C23.4939 21.2087 23.4183 21.2842 23.3428 21.2842C23.4183 21.2087 23.4939 21.1332 23.5694 20.9821C23.5694 20.9821 23.4939 20.9821 23.4939 21.0576C23.3428 21.1332 23.4939 20.9065 23.4939 20.831C23.4939 20.831 23.4939 20.831 23.4939 20.7554C23.4939 20.7554 23.4939 20.7554 23.4939 20.6799C23.4183 20.7554 23.2672 20.7554 23.3428 20.6044L23.4183 20.5288H23.2672C23.1917 20.3777 23.1161 20.2266 23.1161 20.0756C23.0406 20 23.0406 19.8489 23.1161 19.7734L23.1917 19.6978C23.1161 19.6978 23.1161 19.7734 23.0406 19.7734C23.0406 19.7734 23.0406 19.6978 23.0406 19.6223C23.1161 19.5468 23.1917 19.4712 23.2672 19.3957C23.2672 19.3201 23.3428 19.3201 23.3428 19.2446C23.2672 19.3201 23.1161 19.4712 22.9651 19.5468C22.9651 19.4712 22.8895 19.4712 22.8895 19.3957C22.9651 19.3201 23.0406 19.2446 23.1917 19.169C23.6449 18.7158 23.2672 19.5468 23.3428 19.6978C23.3428 19.5468 23.4939 19.3201 23.5694 19.169C23.7205 18.7158 23.3428 18.2625 23.0406 17.9604C23.1917 18.187 23.4939 18.4892 23.2672 18.7158C23.3428 18.7158 23.3428 18.6402 23.4183 18.6402C23.4183 18.7158 23.4183 18.7158 23.4183 18.7913C23.4183 18.8669 23.3428 18.8669 23.3428 18.9424C23.2672 19.0935 23.0406 19.2446 22.8895 19.3957L22.814 19.3201C22.8895 19.2446 22.9651 19.0935 23.0406 19.018C23.0406 19.018 23.0406 18.9424 23.0406 19.018C22.9651 19.018 22.7384 19.3201 22.5873 19.169C22.5873 19.169 22.5873 19.169 22.6629 19.169C22.7384 19.0935 22.7384 19.0935 22.814 19.018C22.8895 19.018 22.8895 18.9424 22.8895 18.9424C22.8895 18.9424 22.8895 18.8669 22.9651 18.8669C22.9651 18.8669 22.9651 18.7913 23.0406 18.7913C23.0406 18.7158 23.1161 18.7158 23.1161 18.6402C23.0406 18.7913 22.8895 18.8669 22.7384 18.9424C22.6629 19.018 22.5873 19.018 22.4363 19.0935C22.3607 19.018 22.4363 19.018 22.4363 18.9424L22.5118 18.8669C22.5873 18.7913 22.6629 18.7158 22.7384 18.6402C22.5873 18.7158 22.4363 18.8669 22.2852 19.018C22.2096 19.018 22.2096 19.018 22.1341 18.9424C22.1341 18.8669 22.2852 18.7913 22.2852 18.7913C22.5873 18.4892 22.0585 18.8669 21.9075 18.8669C21.6808 18.7913 22.0585 18.6402 22.0585 18.5647C22.0585 18.5647 22.1341 18.5647 22.1341 18.4892C21.983 18.5647 21.7564 18.7913 21.6053 18.7158C21.6053 18.7158 21.6053 18.7158 21.6053 18.6402C21.6808 18.6402 21.7564 18.5647 21.7564 18.4892L21.8319 18.4136C21.9075 18.3381 21.6808 18.4136 21.6808 18.4892C21.5297 18.5647 21.2276 18.6402 21.4542 18.4136C21.4542 18.3381 21.2276 18.4892 21.152 18.4892C21.0765 18.4892 21.152 18.4136 21.152 18.4136C21.2276 18.3381 21.2276 18.3381 21.3031 18.2625C20.9254 18.4136 20.7743 18.2625 20.4721 18.0359C20.4721 18.0359 20.4721 18.0359 20.4721 17.9604C20.3966 17.8848 20.4721 17.8093 20.5477 17.8093L20.6232 17.7337C20.5477 17.7337 20.4721 17.8093 20.3966 17.8093C20.3966 17.8093 20.321 17.8848 20.2455 17.8093C20.2455 17.7337 20.2455 17.7337 20.2455 17.7337L20.3211 17.6582C20.3211 17.6582 20.3966 17.6582 20.3966 17.5826C20.2455 17.6582 20.0944 17.8093 19.9433 17.7337C20.0189 17.6582 20.0944 17.5826 20.0944 17.5071L20.17 17.4316C20.0944 17.5071 20.0189 17.5071 19.9433 17.5826C19.5656 17.8093 19.5656 17.6582 19.7923 17.4316C19.7167 17.5071 19.2634 17.8093 19.339 17.5826C19.4145 17.5071 19.4145 17.4316 19.4901 17.356C19.339 17.4316 19.2634 17.5071 19.1124 17.5826C19.1124 17.5826 18.8857 17.6582 18.9613 17.5826C19.0368 17.5071 19.0368 17.4316 19.1124 17.356C19.0368 17.4316 18.5836 17.6582 18.8102 17.356C18.8857 17.356 18.8857 17.2805 18.9613 17.2049C18.9613 17.1294 19.0368 17.1294 19.0368 17.1294C18.9613 17.1294 18.8857 17.2049 18.8102 17.2049C18.7346 17.1294 18.7346 16.9783 18.7346 16.9783C18.7346 17.2049 18.5836 17.4316 18.4325 17.5826C18.4325 17.5826 18.4325 17.5826 18.3569 17.5826C18.0548 17.8093 17.677 17.8848 17.2993 17.8093H17.2238C17.1482 17.8093 17.1482 17.8093 17.1482 17.8093C17.0727 17.8093 16.9972 17.8093 16.9972 17.7337C16.9216 17.6582 16.7705 17.6582 16.695 17.5826C16.695 17.5071 16.6194 17.4316 16.6194 17.4316C16.4684 17.2805 16.695 17.2049 16.8461 17.2049C16.9972 17.2805 17.1482 17.356 17.2993 17.2805C17.4504 17.2049 17.526 17.1294 17.677 17.0538C17.677 16.7517 17.9792 16.525 18.2814 16.6006C18.5836 16.6761 18.9613 16.8272 19.339 16.8272C19.8678 16.9028 20.3966 16.8272 20.8499 16.9783C20.9254 17.0538 21.0009 17.0538 21.152 17.0538C21.3031 17.1294 21.5297 17.2049 21.6808 17.2049C21.7564 17.2049 21.6808 17.2805 21.6808 17.356L21.6053 17.4316C21.7564 17.356 21.8319 17.356 21.983 17.356C21.983 17.4316 21.9075 17.5071 21.9075 17.5071C21.983 17.4316 22.4363 17.2805 22.2096 17.5071C22.2096 17.5071 22.1341 17.5071 22.1341 17.5826H22.2096C22.2852 17.5826 22.5118 17.4316 22.5118 17.5826V17.6582C22.5118 17.6582 22.5118 17.6582 22.5118 17.7337C22.5873 17.7337 22.6629 17.6582 22.814 17.6582V17.7337C22.8895 17.7337 23.0406 17.7337 23.1917 17.7337C23.2672 17.7337 23.3428 17.8093 23.4183 17.8848C23.5694 18.0359 23.6449 18.2625 23.796 18.4136C23.796 18.187 23.7205 17.9604 23.5694 17.8093C23.6449 17.7337 23.7205 17.8093 23.7205 17.8848C23.796 17.9604 23.8716 17.7337 23.9471 17.8093C23.9471 17.8848 23.8716 17.9604 23.8716 18.0359C24.0227 18.0359 24.0982 17.8848 24.2493 17.8093C24.2493 17.8093 24.2493 17.8093 24.2493 17.8848C24.2493 17.8848 24.2493 17.9604 24.1737 17.9604C24.1737 18.1114 24.0982 18.1114 24.0227 18.187C24.0982 18.1114 24.2493 18.0359 24.3248 18.0359C24.4004 17.9604 24.4759 17.8848 24.627 17.8848C24.627 17.8848 24.7025 17.8848 24.7025 17.9604C24.7025 18.0359 24.627 18.0359 24.627 18.1114C24.4759 18.2625 24.3248 18.4136 24.1737 18.5647L24.2493 18.4892C24.4004 18.4136 24.5515 18.2625 24.7025 18.187C24.7781 18.1114 24.9292 18.0359 25.0047 17.9604C25.0803 17.9604 25.1558 17.8848 25.2313 17.9604C25.0803 18.187 24.8536 18.3381 24.627 18.4892C24.8536 18.3381 26.2134 17.5071 25.458 18.187C25.6846 18.187 25.9112 17.9604 26.0623 17.8848C26.1379 17.8848 26.2134 17.8848 26.2889 17.8848C26.2889 17.9604 26.2134 18.0359 26.1379 18.0359C26.2134 18.0359 26.2889 17.9604 26.3645 17.8848C26.44 17.8848 26.5911 17.7337 26.6667 17.8093C26.6667 17.8848 26.5911 17.8848 26.5911 17.8848C26.5156 17.9604 26.5911 17.9604 26.6667 17.8848C26.8177 17.7337 27.0444 17.6582 27.271 17.7337C27.271 17.8093 27.1955 17.8093 27.1199 17.8848L27.0444 17.9604C27.0444 17.9604 27.1199 17.9604 27.1199 17.8848C27.271 17.8093 27.3465 17.7337 27.4976 17.6582C27.7243 17.5826 27.9509 17.5826 28.1775 17.5826C28.4797 17.5826 28.7063 17.5826 29.0085 17.5826C29.0085 17.5826 29.0085 17.5826 29.0085 17.6582C28.9329 17.7337 28.9329 17.7337 28.8574 17.8093C29.0085 17.8093 29.1596 17.5826 29.3107 17.5826C29.3862 17.6582 29.3107 17.7337 29.2351 17.7337C29.1596 17.8093 29.2351 17.7337 29.2351 17.8093C29.3107 17.8093 29.3107 17.7337 29.3862 17.7337V17.4316C28.4041 17.4316 27.4221 17.5071 26.5156 17.5071C26.3645 17.5071 26.1379 17.5071 25.9868 17.5071C24.4759 17.5826 22.9651 17.5071 21.5297 16.9783C21.4542 16.9783 21.3787 16.9028 21.3031 16.9028C21.2276 16.9028 21.2276 16.8272 21.152 16.8272C21.0009 16.7517 20.7743 16.6006 20.5477 16.6006H20.4721C20.2455 16.6006 20.0944 16.525 19.8678 16.525C19.6412 16.525 19.4901 16.525 19.2634 16.4495C18.8102 16.4495 18.2814 16.1473 17.8281 16.2984C17.6015 16.4495 17.3749 16.6006 17.0727 16.6761C16.8461 16.8272 16.1662 16.6761 16.3173 17.1294C16.3928 17.2049 16.2417 17.2049 16.2417 17.2805C15.7885 17.4316 15.3352 17.356 14.882 17.356C14.2021 17.356 13.5222 17.2049 12.9178 17.2049C12.238 17.1294 11.5581 17.1294 10.8782 17.1294V17.4316C10.9537 17.356 11.1048 17.2805 11.1804 17.356C11.1804 17.4316 11.1048 17.4316 11.1048 17.4316C11.0293 17.5071 10.9537 17.5826 10.8782 17.6582C10.9537 17.6582 11.0293 17.5826 11.0293 17.5826C11.0293 17.5826 11.0293 17.5826 11.1048 17.5826C11.1048 17.5826 11.1048 17.5826 11.1804 17.5826C11.2559 17.5071 11.3314 17.5071 11.3314 17.5071C11.407 17.5071 11.407 17.4316 11.4825 17.4316H11.5581C11.6336 17.5071 11.4825 17.5826 11.4825 17.5826C11.407 17.6582 11.407 17.6582 11.3314 17.7337C11.3314 17.7337 11.2559 17.7337 11.2559 17.8093C11.3314 17.8093 11.4825 17.6582 11.5581 17.6582H11.6336L11.7092 17.5826C11.7847 17.5826 11.7847 17.5826 11.8602 17.5071C11.9358 17.5071 11.9358 17.4316 12.0113 17.5071C12.0113 17.5826 11.9358 17.5826 11.8602 17.5826C11.7847 17.6582 11.7092 17.7337 11.6336 17.8093C11.8602 17.7337 12.0869 17.5071 12.389 17.5826C12.3135 17.6582 12.238 17.6582 12.238 17.7337C12.238 17.8093 12.1624 17.8093 12.0869 17.8848C12.3135 17.8093 12.5401 17.5826 12.8423 17.5826C12.8423 17.6582 12.7668 17.6582 12.6912 17.7337C12.6157 17.8093 12.5401 17.8093 12.5401 17.8848C12.6912 17.8093 12.7668 17.8093 12.9178 17.7337C12.9934 17.7337 13.1445 17.5826 13.2956 17.6582C13.22 17.7337 13.1445 17.8093 13.1445 17.8093C13.0689 17.8093 13.0689 17.8848 13.0689 17.8848C13.6733 17.5826 14.3532 17.6582 15.033 17.6582C15.033 17.7337 15.033 17.7337 15.033 17.7337C15.1086 17.7337 15.1841 17.6582 15.2597 17.6582C15.3352 17.6582 15.4108 17.6582 15.4108 17.6582C15.4108 17.7337 15.4108 17.7337 15.3352 17.7337C15.4108 17.7337 15.4863 17.6582 15.4863 17.6582H15.5618C15.6374 17.6582 15.6374 17.6582 15.7129 17.6582C15.7129 17.6582 15.7129 17.7337 15.6374 17.7337C15.7129 17.7337 15.7885 17.6582 15.864 17.6582C15.9396 17.6582 16.0151 17.6582 16.0906 17.6582C16.0906 17.7337 16.0906 17.7337 16.0151 17.8093C16.0151 17.8093 16.0151 17.8093 16.0151 17.8848C16.0906 17.8093 16.1662 17.8093 16.2417 17.7337C16.3173 17.7337 16.3173 17.6582 16.3928 17.6582C16.4684 17.6582 16.4684 17.6582 16.5439 17.6582C16.5439 17.6582 16.5439 17.6582 16.5439 17.7337C16.4684 17.8093 16.3928 17.8093 16.3928 17.8848C16.4684 17.8848 16.6194 17.8093 16.695 17.8093H16.7705V17.8848C16.695 17.9604 16.695 17.9604 16.6194 18.0359C16.6194 18.0359 16.6194 18.0359 16.6194 18.1114C16.7705 18.0359 16.8461 17.9604 16.9972 17.9604C17.0727 17.9604 16.9972 18.0359 16.9972 18.0359L16.9216 18.1114C16.8461 18.187 16.8461 18.187 16.7705 18.2625C16.8461 18.2625 16.9972 18.187 17.0727 18.1114C17.3749 17.9604 17.3749 18.1114 17.1482 18.2625C17.1482 18.2625 17.0727 18.3381 17.0727 18.4136C17.2993 18.3381 17.4504 18.187 17.677 18.1114C17.7526 18.0359 17.9037 17.9604 17.8281 18.1114C17.526 18.4136 17.8281 18.187 18.0548 18.1114C18.1303 18.1114 18.2058 18.0359 18.2058 18.0359C18.2814 18.0359 18.4325 17.9604 18.3569 18.1114C18.508 18.0359 18.5836 17.9604 18.7346 17.9604C19.1879 17.8848 19.6412 17.9604 20.0944 18.1114C20.17 18.1114 20.2455 18.187 20.3211 18.187C20.3966 18.2625 20.3966 18.2625 20.4721 18.2625C20.6988 18.5647 21.152 18.6402 21.4542 18.8669C21.5297 18.9424 21.6053 18.9424 21.6808 18.9424C21.7564 19.018 21.8319 19.018 21.9075 19.0935C21.983 19.169 22.1341 19.2446 22.2096 19.3201C22.5873 19.5468 22.814 19.9245 22.9651 20.3022C22.9651 20.3777 22.9651 20.3777 23.0406 20.3777V20.4533C23.1161 20.7554 23.3428 21.1332 23.1917 21.4353C23.1161 21.5864 22.3607 21.8886 22.7384 21.662C22.814 21.662 22.814 21.5864 22.8895 21.5864C22.8895 21.5864 22.9651 21.5864 22.9651 21.5109C23.0406 21.4353 23.1161 21.3598 23.1917 21.2842C23.1161 21.2842 23.0406 21.3598 22.9651 21.4353C22.9651 21.4353 22.8895 21.4353 22.8895 21.5109C22.814 21.5109 22.6629 21.5864 22.5873 21.5864C22.5118 21.5109 22.5873 21.5109 22.5873 21.5109C22.7384 21.4353 22.814 21.3598 22.8895 21.2842C23.0406 21.0576 22.5873 21.3598 22.4363 21.3598C22.4363 21.3598 22.4363 21.3598 22.3607 21.2842C22.4363 21.2087 22.5873 21.1332 22.6629 21.1332C22.6629 21.1332 22.6629 21.0576 22.7384 21.0576V20.9821C22.5873 21.0576 22.4363 21.1332 22.2852 21.1332C22.2852 21.1332 22.2096 21.0576 22.2852 21.0576L22.3607 20.9821C22.5118 20.9065 22.6629 20.831 22.7384 20.6799H22.6629C22.5873 20.7554 22.5118 20.7554 22.5118 20.7554C22.4363 20.831 22.2852 20.831 22.1341 20.831C22.1341 20.831 22.1341 20.831 22.1341 20.7554C22.2096 20.7554 22.2096 20.6799 22.2852 20.6799C22.2852 20.6799 22.2852 20.6799 22.3607 20.6799C22.3607 20.6799 22.3607 20.6799 22.4363 20.6799C22.5873 20.6044 22.6629 20.4533 22.6629 20.3022C22.6629 20.3022 22.6629 20.3777 22.5873 20.3777C22.7384 20.3022 22.6629 20.3777 22.6629 20.3777C22.6629 20.3777 22.6629 20.3777 22.6629 20.3022C22.6629 20.2266 22.6629 20.2266 22.7384 20.1511C22.7384 20.0756 22.9651 19.9245 22.8895 19.7734C22.8895 19.7734 22.8895 19.8489 22.814 19.8489C22.814 19.9245 22.7384 19.9245 22.7384 19.9245L22.6629 20C22.5118 20.1511 22.3607 20.2266 22.2096 20.3022C22.2852 20.3777 22.4363 20.2266 22.5118 20.3022C22.3607 20.5288 22.1341 20.3777 21.983 20.2266C21.9075 20.1511 21.8319 20.1511 21.7564 20.0756C21.6808 20 21.6053 20 21.6053 20C21.6053 20 21.6053 20 21.6053 19.9245C21.6808 19.9245 21.6808 19.8489 21.7564 19.8489C21.8319 19.7734 21.9075 19.7734 21.9075 19.6978C21.9075 19.6978 21.983 19.6978 21.983 19.6223C21.8319 19.6978 21.6808 19.7734 21.4542 19.8489C21.4542 19.9245 21.3787 19.8489 21.3787 19.8489C21.3787 19.8489 21.3787 19.7734 21.4542 19.7734C21.5297 19.6978 21.6053 19.6978 21.6053 19.6223C21.5297 19.6223 21.0765 19.8489 21.152 19.6978C21.2276 19.6223 21.3031 19.5468 21.3787 19.4712C21.2276 19.4712 21.152 19.5468 21.0009 19.5468C21.0009 19.3957 21.2276 19.3957 21.2276 19.3201C21.152 19.3201 20.6232 19.5468 20.8499 19.3201C20.8499 19.2446 20.9254 19.2446 21.0009 19.169C20.9254 19.169 20.6232 19.3201 20.6232 19.169C20.6232 19.0935 20.6988 19.0935 20.7743 19.0935C20.8499 19.018 20.9254 19.018 20.9254 18.9424C20.9254 18.9424 20.9254 18.9424 21.0009 18.8669C20.9254 18.8669 20.9254 18.9424 20.8499 18.9424C20.7743 18.9424 20.6232 19.0935 20.4721 19.0935C20.4721 19.0935 20.4721 19.0935 20.4721 19.018C20.5477 18.9424 20.6988 18.8669 20.7743 18.7913C20.6232 18.7913 20.4721 18.9424 20.3211 19.018C20.3211 19.018 20.2455 19.018 20.2455 19.0935C20.2455 19.0935 20.2455 19.0935 20.2455 19.169C20.2455 19.169 20.2455 19.169 20.3211 19.169C20.3966 19.2446 20.4721 19.3201 20.4721 19.4712C20.5477 19.6223 20.7743 19.7734 20.9254 19.9245C21.0009 20 21.152 20.0756 21.2276 20.1511C21.3031 20.1511 21.3031 20.2266 21.3787 20.3022C21.3787 20.3022 21.3787 20.3022 21.4542 20.3777L21.5297 20.4533C21.6053 20.4533 21.6053 20.5288 21.6053 20.5288C21.6053 20.5288 21.6053 20.5288 21.6808 20.5288C21.6808 20.5288 21.7564 20.5288 21.7564 20.6044C21.9075 20.6799 21.983 20.831 22.0585 20.9065C22.1341 20.9821 22.2096 21.1332 22.2096 21.2842C22.2096 21.2842 22.2096 21.2842 22.2096 21.3598C22.2852 21.4353 22.2096 21.5109 22.2096 21.5864C22.2096 21.662 22.1341 21.662 22.1341 21.7375C22.0585 21.813 21.9075 21.8886 21.7564 22.0397C21.8319 22.0397 21.983 21.9641 22.0585 21.8886L22.1341 21.813L22.2096 21.7375C22.2096 21.7375 22.2096 21.7375 22.2852 21.662C22.2852 21.813 22.2096 21.8886 22.1341 21.9641C22.0585 22.0397 21.983 22.1152 21.9075 22.1152C22.0585 22.1152 22.1341 22.0397 22.2096 21.9641C22.2852 21.9641 22.2852 21.8886 22.3607 21.813C22.3607 21.813 22.3607 21.813 22.4363 21.813C22.5873 21.662 22.5118 21.9641 22.4363 22.0397C22.3607 22.1152 22.2096 22.1908 22.0585 22.2663C22.1341 22.2663 22.2096 22.2663 22.2852 22.1908C22.2852 22.1908 22.2852 22.1908 22.3607 22.1908H22.4363L22.5118 22.1152V22.1908C22.4363 22.3418 22.2852 22.3418 22.1341 22.4174C22.2096 22.4929 22.3607 22.3418 22.3607 22.4174C22.2852 22.4929 22.0585 22.7196 21.9075 22.4929L21.8319 22.4174C21.8319 22.4174 21.8319 22.3418 21.7564 22.3418V22.2663C21.6808 22.1908 21.6808 22.1152 21.6053 22.0397L21.5297 21.9641L21.4542 21.8886C21.4542 21.8886 21.4542 21.8886 21.4542 21.813C21.4542 21.813 21.4542 21.7375 21.3787 21.7375L21.3031 21.662C21.3031 21.662 21.3031 21.5864 21.2276 21.5864L21.152 21.5109C21.0765 21.5109 21.0765 21.4353 21.0765 21.4353C21.0009 21.3598 20.8499 21.2842 20.7743 21.2087C20.7743 21.2087 20.6988 21.1332 20.6232 21.1332L20.5477 21.0576L20.4721 20.9821C20.4721 20.9821 20.4721 20.9821 20.3966 20.9065L20.3211 20.831L20.2455 20.7554H20.17H20.0944C20.0944 20.7554 20.0189 20.7554 20.0189 20.6799C20.0189 20.6799 20.0189 20.6799 20.0944 20.6799L20.17 20.6044C20.2455 20.5288 20.3211 20.4533 20.3966 20.3777C20.2455 20.4533 20.0944 20.5288 20.0189 20.6044C20.0189 20.6044 19.9433 20.6799 19.9433 20.6044C20.0189 20.4533 20.2455 20.3022 20.3966 20.1511C20.3211 20.1511 20.321 20.2266 20.2455 20.2266C20.0944 20.3777 19.7923 20.4533 19.7167 20.6044C19.7923 20.6044 19.7922 20.6799 19.8678 20.6799C19.9433 20.6799 19.9433 20.7554 20.0189 20.7554C20.0944 20.7554 20.0189 20.831 20.0189 20.831C20.0189 20.831 20.0189 20.831 19.9433 20.831C19.8678 20.831 19.7922 20.831 19.8678 20.9065C19.8678 20.9065 19.8678 20.9065 19.9433 20.9065C19.9433 20.9821 20.0944 20.9065 20.0944 20.9821C20.2455 21.0576 20.3211 21.1332 20.4721 21.2087C20.5477 21.2842 20.6232 21.3598 20.6988 21.3598C20.6988 21.3598 20.7743 21.3598 20.7743 21.4353L20.8499 21.5109C20.8499 21.5109 20.9254 21.5109 20.9254 21.5864V21.662C20.9254 21.7375 20.9254 21.813 20.9254 21.813C20.9254 21.813 21.0009 21.7375 21.0009 21.813V21.8886V21.9641C21.0009 22.0397 20.9254 22.0397 20.9254 22.1152L20.8499 22.1908L20.7743 22.2663V22.1908C20.8499 22.1152 20.8499 22.0397 20.8499 21.9641C20.7743 22.0397 20.6988 22.1152 20.6232 22.1908C20.6232 22.1908 20.5477 22.1908 20.5477 22.2663C20.5477 22.2663 20.5477 22.2663 20.4721 22.2663C20.4721 22.2663 20.3966 22.2663 20.3966 22.3418C20.3211 22.3418 20.321 22.4174 20.2455 22.3418C20.2455 22.2663 20.3966 22.1908 20.3966 22.1908C20.3211 22.1152 20.321 22.2663 20.2455 22.1908C20.0944 22.2663 19.8678 22.3418 19.6412 22.4174C19.7167 22.3418 19.8678 22.3418 19.9433 22.2663C20.0189 22.2663 20.0189 22.1908 20.0944 22.1908C20.0944 22.1908 20.17 22.1908 20.17 22.1152C20.0189 22.1152 19.8678 22.2663 19.6412 22.2663C19.5656 22.2663 19.6412 22.1908 19.6412 22.1908C19.7922 22.1152 19.8678 22.0397 20.0189 21.9641C19.8678 21.9641 19.5656 22.1908 19.4145 22.0397C19.4145 22.0397 19.4145 22.0397 19.4145 21.9641C19.4145 21.9641 19.4145 21.9641 19.4901 21.9641C19.5656 21.8886 19.7167 21.813 19.7167 21.7375C19.5656 21.813 19.339 21.8886 19.1879 21.8886C19.1124 21.8886 19.1879 21.8886 19.1879 21.813C19.2634 21.7375 19.339 21.7375 19.339 21.662C19.4145 21.662 19.4145 21.5864 19.4901 21.5864C19.339 21.5864 18.8102 21.8886 18.9613 21.662L19.0368 21.5864L19.1124 21.5109C19.1124 21.5109 19.1879 21.5109 19.1879 21.4353C19.1124 21.4353 18.5836 21.662 18.7346 21.5109L18.8102 21.4353C18.8102 21.4353 18.8102 21.4353 18.8857 21.3598C18.9613 21.2842 18.9613 21.2842 19.0368 21.2842C18.8857 21.2842 18.7346 21.4353 18.508 21.4353V21.3598C18.508 21.2842 18.5836 21.2842 18.5836 21.2842L18.6591 21.2087C18.7346 21.1332 18.8102 21.1332 18.8102 21.0576C18.5836 21.1332 18.4325 21.3598 18.2058 21.2842C18.2814 21.2087 18.3569 21.1332 18.4325 21.0576C18.508 20.9821 18.5836 20.9821 18.6591 20.9065C18.508 20.9065 18.4325 20.9065 18.2814 20.831C18.2814 20.831 18.2058 20.831 18.2058 20.7554C18.2058 20.7554 18.1303 20.7554 18.1303 20.6799C18.0548 20.6799 17.9792 20.6799 17.9037 20.7554C17.8281 20.831 17.8281 20.831 17.7526 20.9065L17.677 20.9821C17.677 20.9821 17.677 20.9821 17.6015 20.9821C17.526 21.0576 17.3749 21.1332 17.2238 21.2087C17.0727 21.2842 17.1482 21.1332 17.2238 21.0576C17.2993 20.9821 17.2993 20.9821 17.3749 20.9065L17.4504 20.831C17.4504 20.7554 17.526 20.7554 17.526 20.7554C17.6015 20.6799 17.677 20.6799 17.7526 20.6044C17.677 20.6044 17.526 20.7554 17.3749 20.831C17.3749 20.831 17.3749 20.831 17.2993 20.831C17.2238 20.9065 17.2238 20.9065 17.1482 20.9065C17.0727 20.9821 17.0727 20.9821 16.9972 21.0576C16.9972 21.0576 16.9972 21.0576 16.9216 21.1332C16.8461 21.1332 16.8461 21.2087 16.7705 21.2087C16.695 21.2087 16.695 21.2842 16.6194 21.2842C16.5439 21.2842 16.6194 21.2087 16.6194 21.1332C16.9216 20.9065 17.1482 20.6799 17.3749 20.4533L17.4504 20.3777L17.526 20.3022C17.4504 20.3022 17.3749 20.3777 17.3749 20.4533C17.3749 20.4533 17.3749 20.4533 17.2993 20.4533L17.2238 20.5288C17.1482 20.5288 17.1482 20.6044 17.0727 20.6044C16.9216 20.6799 16.7705 20.831 16.6194 20.9065C16.5439 20.9821 16.3928 21.0576 16.3173 21.1332L16.2417 21.2087C16.1662 21.2842 16.1662 21.2842 16.0906 21.3598C16.6194 21.2842 16.5439 21.1332 16.6194 21.1332C16.8461 20.831 17.1482 20.6044 17.4504 20.3777C17.4504 20.3777 17.4504 20.3777 17.526 20.3777C17.526 20.3777 17.6015 20.3777 17.6015 20.3022C17.526 20.3022 17.3749 20.4533 17.2993 20.4533C17.2993 20.4533 17.2238 20.4533 17.2238 20.5288L17.1482 20.6044L17.0727 20.6799L16.9972 20.7554C16.9216 20.831 16.8461 20.9065 16.7705 20.9821L16.695 21.0576C16.695 21.0576 16.6194 21.0576 16.6194 21.1332C16.4684 21.2087 16.4684 21.1332 16.6194 21.0576C16.695 20.9821 16.7705 20.9821 16.7705 20.9065C16.9216 20.6799 17.2238 20.5288 17.4504 20.3022C17.526 20.2266 17.6015 20.1511 17.677 20.0756C17.6015 20.0756 17.526 20.1511 17.526 20.2266C17.2238 20.4533 16.9972 20.6799 16.695 20.9065C16.6194 20.9821 16.5439 21.0576 16.4684 21.1332C16.3928 21.1332 16.3173 21.2842 16.2417 21.2087C16.3173 21.1332 16.3928 21.0576 16.4684 20.9821C16.4684 20.9821 16.5439 20.9821 16.5439 20.9065C16.5439 20.9065 16.5439 20.831 16.6194 20.831C16.7705 20.6799 16.8461 20.6044 16.9972 20.4533C16.9216 20.4533 16.9216 20.5288 16.8461 20.5288C16.7705 20.6044 16.695 20.6044 16.6194 20.6799C16.4684 20.7554 16.3173 20.831 16.2417 20.9821C16.1662 20.9821 16.0906 21.1332 16.0151 21.1332C16.0151 21.1332 15.9396 21.2087 15.9396 21.1332V21.0576C15.9396 21.0576 15.9396 21.0576 15.9396 20.9821C15.9396 20.9821 15.9396 20.9821 16.0151 20.9065C16.0906 20.831 16.1662 20.7554 16.1662 20.6799C16.2417 20.6044 16.2417 20.6044 16.3173 20.5288L16.3928 20.4533C16.3928 20.4533 16.3928 20.4533 16.3173 20.4533C16.2417 20.5288 16.1662 20.6044 16.0906 20.6044C16.0906 20.6044 16.0151 20.6044 16.0151 20.6799C15.9396 20.7554 15.864 20.7554 15.7885 20.831C15.7129 20.9065 15.1841 21.3598 15.3352 21.1332L15.4108 21.0576C15.4863 20.9821 15.4863 20.9065 15.5618 20.831L15.6374 20.7554C15.7129 20.7554 15.7129 20.6799 15.7885 20.6044C15.7885 20.5288 15.864 20.5288 15.864 20.5288C15.864 20.5288 15.864 20.4533 15.9396 20.4533C15.5618 20.6799 15.1841 21.0576 14.8064 21.3598C14.8064 21.3598 14.8064 21.3598 14.7309 21.3598C14.5798 21.3598 14.7309 21.2842 14.7309 21.2087L14.8064 21.1332C14.882 21.0576 14.9575 20.9065 15.1086 20.831C15.1841 20.6799 15.3352 20.6044 15.4108 20.5288L15.4863 20.4533C15.5618 20.3777 15.7129 20.3022 15.7885 20.1511C15.5618 20.2266 15.4108 20.4533 15.2597 20.5288C15.1841 20.6044 15.1086 20.6044 15.1086 20.6799C14.9575 20.7554 14.8064 20.9065 14.7309 21.0576C14.5798 21.2087 14.5042 21.2842 14.3532 21.4353C14.2776 21.5109 14.2021 21.5109 14.2021 21.4353C14.2776 21.3598 14.3532 21.2842 14.4287 21.2087C14.5042 21.1332 14.5798 20.9821 14.7309 20.9065L14.8064 20.831C14.8064 20.831 14.8064 20.7554 14.882 20.7554L14.9575 20.6799C15.033 20.6044 15.033 20.6044 15.1086 20.5288C15.1841 20.4533 15.3352 20.3022 15.4108 20.2266C15.3352 20.3022 15.2597 20.3022 15.2597 20.3022C15.1086 20.4533 14.882 20.5288 14.7309 20.7554C14.6553 20.831 14.5798 20.9065 14.5042 20.9821C14.4287 20.9821 14.4287 21.0576 14.3532 21.0576C14.2021 21.1332 14.051 21.4353 13.8999 21.4353C13.8244 21.3598 13.8999 21.2842 13.9754 21.2842L14.051 21.2087C14.1265 21.1332 14.2021 21.0576 14.2776 20.9821C14.2776 20.9821 14.2776 20.9821 14.3532 20.9065C14.4287 20.831 14.5042 20.7554 14.5798 20.6799C14.6553 20.6044 14.4287 20.6799 14.3532 20.7554C14.3532 20.7554 14.2776 20.7554 14.2776 20.831C13.9754 20.9821 13.7488 21.2842 13.5222 21.5109C13.0689 21.662 12.5401 21.5864 12.0869 21.662C11.8602 21.662 11.5581 21.662 11.3314 21.662V21.8886H11.407C12.5401 21.7375 13.6733 21.7375 14.882 21.662C15.1086 21.662 15.3352 21.662 15.5618 21.662C15.5618 21.7375 15.6374 21.8886 15.7129 21.9641C15.7885 22.1152 15.864 22.2663 16.0151 22.3418C16.1662 22.3418 16.3173 22.4174 16.3928 22.3418C16.4684 22.3418 16.4684 22.3418 16.5439 22.4174C16.6194 22.4174 16.6194 22.4174 16.6194 22.4174C16.6194 22.4929 16.695 22.5685 16.7705 22.644C16.7705 22.644 16.7705 22.644 16.8461 22.7196L16.9216 22.7951H16.9972C17.1482 22.9462 17.4504 22.9462 17.677 22.9462C17.677 22.9462 17.677 22.9462 17.677 23.0217C17.8281 23.3994 18.3569 23.5505 18.7346 23.3994V23.475C18.8102 23.5505 18.8857 23.6261 18.8857 23.7016C18.9613 23.7772 19.0368 23.7772 19.1879 23.8527C19.2634 23.8527 19.4145 23.8527 19.4901 23.8527C19.6412 23.8527 19.7167 23.7772 19.8678 23.7772C19.9433 23.7772 20.0189 23.7016 20.0944 23.7016C20.17 23.7772 20.3211 23.8527 20.3966 23.8527C20.4721 23.9282 20.5477 23.9282 20.6232 23.9282C20.7743 23.9282 20.9254 23.8527 21.0009 23.8527C21.0765 23.8527 21.0765 23.7772 21.152 23.7772C21.3031 23.6261 21.3787 23.475 21.3031 23.2484C21.3031 23.2484 21.3031 23.2484 21.3787 23.2484C21.6808 23.475 21.983 23.2484 22.2096 23.0217C22.2096 23.0217 22.2096 22.9462 22.2852 22.9462C22.3607 23.0217 22.5118 23.0217 22.6629 22.9462C22.814 22.8706 22.8895 22.7951 23.0406 22.7196C23.1161 22.644 23.1161 22.5685 23.1161 22.4929C23.1917 22.4929 23.2672 22.4174 23.3428 22.4174C23.4183 22.3418 23.5694 22.2663 23.6449 22.1908C23.6449 22.1908 23.6449 22.1152 23.7205 22.1152C23.796 22.1152 23.796 22.0397 23.796 21.9641C23.8716 21.9641 23.9471 21.8886 24.0227 21.8886L24.0982 21.813C24.1737 21.813 24.1737 21.7375 24.1737 21.7375C24.7781 21.5109 25.5335 21.7375 26.1379 21.7375C27.4221 21.813 28.6308 21.9641 29.915 22.0397V21.662H29.5373ZM17.1482 17.1294C17.2993 17.1294 17.3749 17.0538 17.526 16.9783C17.6015 16.9028 17.677 16.9028 17.7526 16.8272C17.7526 17.0538 17.2993 17.2805 17.1482 17.1294ZM19.1879 22.1152C19.2634 22.1152 19.339 22.1908 19.339 22.2663C19.339 22.2663 19.4145 22.3418 19.339 22.3418C19.2634 22.3418 19.1879 22.4174 19.0368 22.4174C19.1124 22.4929 19.2634 22.3418 19.1879 22.4929C19.1124 22.5685 19.1124 22.5685 19.0368 22.644C18.9613 22.644 18.9613 22.644 18.8857 22.644C18.8857 22.644 18.8857 22.644 18.8102 22.5685V22.4929C18.8102 22.4174 18.8102 22.4174 18.8857 22.4174C18.9613 22.4174 19.1879 22.1908 18.9613 22.2663V22.1908C19.1124 22.1152 19.1124 22.1152 19.1879 22.1152C19.1879 22.1152 19.1879 22.0397 19.1879 22.1152ZM18.8857 22.7196H18.9613H19.0368C19.0368 22.7196 18.9613 22.7196 18.9613 22.7951C18.9613 22.7951 18.8857 22.7951 18.8102 22.7951C18.8102 22.7951 18.8102 22.7951 18.8857 22.7196C18.8102 22.7951 18.8102 22.7196 18.8857 22.7196ZM18.6591 20.7554C18.7346 20.7554 18.8857 20.6044 18.8857 20.7554C18.8857 20.831 18.8102 20.831 18.7346 20.9065C18.3569 21.1332 18.2814 21.0576 18.6591 20.7554ZM17.9037 21.1332C17.9792 21.1332 17.9792 21.0576 17.9037 21.1332C18.0548 20.9821 18.1303 20.9065 18.2814 20.831C18.4325 20.6044 18.8102 20.6044 18.4325 20.9065C18.3569 20.9065 17.9792 21.2842 17.9037 21.1332ZM17.9792 21.3598C17.9037 21.3598 17.9792 21.2842 17.9792 21.3598C17.9792 21.2842 17.9792 21.2842 17.9792 21.3598C18.0548 21.2842 18.1303 21.2087 18.1303 21.2842C18.1303 21.2842 18.0548 21.3598 17.9792 21.3598ZM16.8461 21.4353L16.9216 21.3598C17.2238 21.1332 17.677 21.1332 17.8281 21.5109C17.8281 21.5864 17.8281 21.5864 17.8281 21.662C17.8281 21.7375 17.8281 21.813 17.7526 21.8886L17.677 21.9641C17.677 21.8886 17.677 21.7375 17.526 21.7375C17.3749 21.5864 17.2238 21.3598 17.0727 21.5109C16.9972 21.4353 16.8461 21.5109 16.8461 21.4353ZM17.8281 22.1908C17.8281 22.1908 17.8281 22.1152 17.8281 22.1908C17.9037 22.1152 17.9037 22.1152 17.9792 22.1152C17.9792 22.1152 18.0548 22.1152 18.0548 22.0397C18.0548 22.0397 18.0548 22.0397 18.1303 22.0397C18.2058 22.1152 18.0548 22.1152 17.9792 22.1908C17.9037 22.1908 17.9037 22.1908 17.8281 22.1908ZM16.8461 21.662C16.9216 21.5864 16.9216 21.5864 16.9216 21.5864C17.0727 21.5109 17.2993 21.5109 17.4504 21.662C17.4504 21.662 17.4504 21.662 17.4504 21.7375C17.4504 21.7375 17.4504 21.7375 17.526 21.813C17.526 21.8886 17.6015 21.9641 17.526 21.9641C17.4504 22.0397 17.3749 22.0397 17.2993 22.1152H17.2238H17.1482C17.0727 22.1152 16.9972 22.0397 16.9216 21.9641C16.8461 21.9641 16.7705 21.7375 16.8461 21.662ZM16.0151 22.1152C15.9396 22.1908 15.7885 22.1152 15.7129 22.0397C15.7129 22.0397 15.7129 22.0397 15.6374 22.0397C15.4863 21.8886 15.6374 21.8886 15.7885 21.9641C15.7885 21.9641 15.864 22.0397 15.9396 22.0397H16.0151H16.0906C15.9396 22.0397 16.0151 22.1152 16.0151 22.1152ZM16.3928 21.7375C16.3173 21.813 16.2417 21.813 16.1662 21.8886C16.1662 21.8886 16.1662 21.9641 16.2417 21.9641C16.2417 21.9641 16.1662 21.9641 16.1662 22.0397H16.0906H16.0151C15.864 22.0397 15.7129 21.8886 15.9396 21.813L16.0151 21.7375C16.0151 21.7375 16.0906 21.7375 16.0906 21.662L16.1662 21.5864C16.0151 21.5864 15.7885 21.813 15.6374 21.7375C15.6374 21.7375 15.6374 21.7375 15.6374 21.662L15.7129 21.5864C15.7885 21.5109 15.864 21.5109 15.9396 21.4353C15.864 21.4353 15.7885 21.4353 15.7129 21.5109C15.6374 21.5109 15.6374 21.5109 15.6374 21.4353C15.7129 21.3598 15.864 21.2842 15.9396 21.2842C16.1662 21.2087 16.3928 21.2842 16.5439 21.5109C16.5439 21.5864 16.6194 21.662 16.5439 21.7375C16.3928 21.662 16.3928 21.662 16.3928 21.7375ZM17.3749 22.4929L17.2993 22.5685H17.2238C16.9972 22.7196 16.695 22.7196 16.4684 22.4929C16.4684 22.4929 16.4684 22.4929 16.4684 22.4174C16.4684 22.4174 16.4684 22.4174 16.3928 22.3418C16.3928 22.2663 16.3173 22.1152 16.3928 22.0397C16.3928 22.0397 16.3928 22.0397 16.3928 21.9641C16.4684 21.8886 16.4684 21.8886 16.5439 21.813C16.5439 21.813 16.5439 21.813 16.6194 21.813C16.6194 21.813 16.6194 21.813 16.6194 21.8886C16.5439 21.8886 16.5439 21.9641 16.4684 22.0397C16.6194 22.0397 16.695 21.9641 16.8461 21.9641C16.9216 21.9641 16.9216 22.1152 16.8461 22.1152H16.7705C16.7705 22.1152 16.7705 22.1152 16.695 22.1908C16.8461 22.1908 16.9216 22.1152 17.0727 22.0397C17.0727 22.0397 17.1482 21.9641 17.2238 21.9641C17.2993 21.9641 17.3749 21.8886 17.4504 21.8886C17.4504 21.9641 17.2993 22.0397 17.2238 22.1152C17.1482 22.1152 17.1482 22.1908 17.1482 22.1908C17.1482 22.1908 17.1482 22.1908 17.2238 22.1908C17.2993 22.1152 17.4504 22.1152 17.526 22.0397C17.6015 22.0397 17.6015 21.9641 17.677 21.9641C17.677 21.9641 17.677 21.9641 17.7526 21.9641C17.6015 22.2663 17.526 22.3418 17.3749 22.4929C17.4504 22.4174 17.3749 22.4174 17.3749 22.4929ZM18.5836 22.7196L18.508 22.7951C18.4325 22.8706 18.3569 23.0217 18.2058 23.0973C18.0548 23.0973 17.9037 23.1728 17.7526 23.0973C17.7526 23.0973 17.677 23.0973 17.677 23.0217C17.6015 22.9462 17.4504 22.7951 17.6015 22.7196C17.6015 22.7196 17.6015 22.7196 17.6015 22.7951C17.6015 22.7951 17.6015 22.7951 17.677 22.8706C17.677 22.8706 17.677 22.8706 17.7526 22.8706C17.9037 22.9462 18.1303 22.9462 18.2814 22.8706C18.3569 22.7951 18.4325 22.7951 18.4325 22.7196C18.2814 22.7196 18.1303 22.8706 17.9792 22.7951C17.9037 22.7196 18.1303 22.7196 18.1303 22.644C18.2058 22.644 18.2058 22.5685 18.2814 22.5685H18.3569C18.4325 22.5685 18.508 22.4929 18.5836 22.4929C18.5836 22.4929 18.5836 22.4929 18.6591 22.4929C18.3569 22.5685 18.0548 22.7196 17.7526 22.7196C17.7526 22.7196 17.7526 22.7196 17.7526 22.644H17.8281C17.9792 22.5685 18.0548 22.5685 18.2058 22.4929C18.2814 22.4174 18.3569 22.4174 18.4325 22.3418C18.2058 22.3418 17.9037 22.4929 17.677 22.4929L17.7526 22.4174H17.8281C17.9037 22.3418 18.0548 22.3418 18.2058 22.2663C18.2814 22.2663 18.2814 22.1908 18.3569 22.1908H18.4325C18.4325 22.1908 18.508 22.1908 18.508 22.2663C18.5836 22.2663 18.7346 22.2663 18.8102 22.1908L18.8857 22.1152C18.9613 22.0397 18.9613 21.9641 19.0368 21.8886C19.0368 21.813 19.1124 21.813 19.1124 21.7375C19.1124 21.662 18.9613 21.5864 18.9613 21.5109C18.8857 21.5109 18.8857 21.4353 18.8102 21.4353C18.7346 21.3598 18.5836 21.2842 18.4325 21.3598C18.3569 21.4353 18.2814 21.4353 18.2814 21.5109C18.2058 21.5864 18.1303 21.7375 18.0548 21.8886C17.9792 21.8886 17.9037 21.9641 17.9037 21.9641C17.9037 21.8886 17.9792 21.813 17.9792 21.813V21.7375C17.9792 21.7375 17.9792 21.662 18.0548 21.662C18.0548 21.5109 18.2058 21.4353 18.2814 21.3598C18.3569 21.2842 18.4325 21.2842 18.508 21.2842C18.6591 21.2842 18.8102 21.2842 18.9613 21.4353L19.0368 21.5109C19.0368 21.5109 19.0368 21.5864 19.1124 21.5864C19.1124 21.662 19.1879 21.7375 19.1124 21.813C19.1124 21.9641 19.0368 21.9641 18.9613 22.1152C18.9613 22.1152 18.9613 22.1152 18.9613 22.1908C18.8857 22.2663 18.8857 22.3418 18.8102 22.4174L18.7346 22.4929C18.7346 22.4929 18.7346 22.4929 18.7346 22.5685C18.7346 22.4929 18.5836 22.644 18.5836 22.7196ZM18.8857 21.7375C18.8102 21.813 18.6591 21.8886 18.5836 21.8886C18.5836 21.8886 18.5836 21.8886 18.508 21.8886C18.5836 21.9641 18.6591 21.8886 18.7346 21.8886C18.7346 21.9641 18.6591 21.9641 18.6591 22.0397C18.4325 22.2663 17.9792 21.813 18.2814 21.5109C18.3569 21.3598 18.5836 21.5109 18.7346 21.5864C18.8102 21.662 18.8857 21.662 18.8857 21.7375ZM19.4901 23.0217C19.4901 23.0973 19.4145 23.1728 19.4145 23.2484L19.339 23.3239C19.2634 23.3994 19.1879 23.3994 19.0368 23.475C19.1124 23.475 19.1124 23.475 19.1879 23.475C19.2634 23.475 19.4145 23.475 19.4901 23.3994C19.4901 23.3994 19.4901 23.3994 19.4901 23.475C19.2634 23.5505 19.0368 23.5505 18.8102 23.475L18.7346 23.3994L18.8102 23.3239C18.8857 23.3239 18.9613 23.3239 18.9613 23.3239H19.0368C19.1124 23.3239 19.1879 23.2484 19.339 23.1728C19.339 23.1728 19.339 23.1728 19.4145 23.1728C19.4145 23.1728 19.4145 23.1728 19.339 23.1728C19.1879 23.2484 18.8857 23.3239 18.7346 23.2484C18.7346 23.2484 18.7346 23.2484 18.8102 23.2484C18.8857 23.2484 18.8857 23.1728 18.9613 23.1728C18.9613 23.1728 19.0368 23.1728 19.1124 23.0973C19.1879 23.0973 19.1879 23.0973 19.2634 23.0217C19.2634 23.0217 19.339 23.0217 19.4145 22.9462C19.2634 22.9462 18.8102 23.1728 18.8102 22.9462C19.0368 22.7951 19.4145 22.7951 19.5656 22.5685C19.6412 22.4929 19.6412 22.4174 19.6412 22.3418C19.6412 22.3418 19.7167 22.2663 19.7167 22.1908C19.7167 22.0397 19.5656 21.9641 19.4901 21.8886C19.4145 21.813 19.4145 21.7375 19.4901 21.7375H19.5656C19.7167 21.813 19.8678 21.9641 19.9433 22.1908V22.2663C19.9433 22.3418 19.9433 22.4174 19.9433 22.5685C19.9433 22.5685 19.8678 22.644 19.8678 22.7196C19.8678 22.7951 19.7923 22.8706 19.7923 22.8706C19.5656 22.9462 19.5656 22.9462 19.4901 23.0217ZM20.7743 23.3994C20.7743 23.475 20.6988 23.475 20.6988 23.5505C20.6232 23.6261 20.5477 23.6261 20.5477 23.7016C20.3966 23.7772 20.2455 23.7772 20.17 23.7016C20.17 23.7016 20.0944 23.7016 20.0944 23.6261C20.0189 23.6261 20.0189 23.5505 19.9433 23.5505C19.9433 23.5505 19.8678 23.5505 19.8678 23.475L19.7923 23.3994C19.7923 23.3994 19.7167 23.3994 19.7167 23.3239C19.7923 23.2484 19.7922 23.0973 19.8678 22.9462C19.8678 22.8706 19.9433 22.7951 20.0189 22.7196L20.0944 22.644C20.17 22.644 20.2455 22.644 20.3966 22.5685C20.3966 22.5685 20.4721 22.5685 20.4721 22.644C20.3966 22.7196 20.3211 22.7196 20.3211 22.7951C20.3211 22.7951 20.2455 22.7951 20.2455 22.8706C20.17 22.8706 20.17 22.9462 20.0944 22.9462C20.0944 22.9462 20.0944 22.9462 20.0189 22.9462C20.0944 22.9462 20.2455 22.8706 20.3211 22.7951C20.4721 22.7951 20.6232 22.5685 20.7743 22.5685C20.7743 22.644 20.7743 22.644 20.7743 22.644L20.6988 22.7196C20.6988 22.7951 20.6232 22.7951 20.6232 22.8706C20.6232 22.8706 20.5477 22.8706 20.5477 22.9462C20.4721 22.9462 20.4721 23.0217 20.3966 23.0217C20.3966 23.0217 20.3966 23.0217 20.3211 23.0217C20.3966 23.0217 20.5477 22.9462 20.6232 22.8706C20.6988 22.8706 20.7743 22.7951 20.8499 22.7196C20.8499 22.7196 20.9254 22.644 20.9254 22.7196L21.0009 22.644C21.0009 22.644 21.0009 22.5685 21.0765 22.5685C21.0765 22.644 21.0009 22.7196 20.9254 22.7951C20.8499 22.7951 20.8499 22.8706 20.7743 22.8706L20.6988 22.9462L20.6232 23.0217H20.6988C20.7743 23.0217 20.8499 22.9462 20.8499 22.9462L20.9254 22.8706L21.0009 22.7951C21.0009 22.7951 21.0765 22.7196 21.0765 22.7951C21.0765 22.7951 21.0765 22.7951 21.0765 22.8706C21.0765 22.9462 21.0009 23.0217 20.9254 23.0973C20.9254 23.1728 20.8499 23.1728 20.7743 23.2484C20.4721 23.475 20.8499 23.0973 20.7743 23.3994ZM21.6808 22.7196C21.6808 22.7951 21.6053 22.7951 21.6053 22.7951L21.5297 22.8706C21.3787 23.0217 21.152 23.0973 20.9254 22.9462C20.9254 22.9462 20.8499 22.9462 20.8499 22.8706C20.7743 22.7951 20.6988 22.7951 20.6988 22.7196C20.6232 22.644 20.4721 22.5685 20.3966 22.4929C20.3211 22.4929 20.2455 22.4174 20.2455 22.3418C20.2455 22.3418 20.2455 22.3418 20.2455 22.2663H20.3211C20.3966 22.2663 20.3966 22.2663 20.4721 22.2663C20.4721 22.2663 20.5477 22.2663 20.5477 22.3418H20.4721C20.6988 22.4929 21.0009 22.2663 21.2276 22.1908C21.2276 22.1908 21.3031 22.1908 21.3031 22.1152C21.3031 22.1152 21.3031 22.1152 21.3787 22.1152C21.3787 22.1152 21.3787 22.1152 21.4542 22.0397C21.5297 22.0397 21.5297 21.9641 21.5297 21.9641C21.5297 22.0397 21.4542 22.0397 21.4542 22.1152C21.3787 22.1908 21.3031 22.2663 21.3031 22.2663C21.3031 22.2663 21.2276 22.2663 21.2276 22.3418C21.152 22.3418 21.0765 22.4174 21.0765 22.4174C21.0765 22.4174 21.0765 22.4174 21.0009 22.4174C21.0765 22.4174 21.2276 22.3418 21.3031 22.2663C21.3787 22.2663 21.4542 22.1908 21.4542 22.1908C21.5297 22.1908 21.6053 22.1152 21.6053 22.1152C21.6053 22.0397 21.7564 22.0397 21.6808 22.1152C21.6808 22.1908 21.6053 22.1908 21.5297 22.2663C21.4542 22.3418 21.4542 22.3418 21.3787 22.4174C21.3787 22.4174 21.3031 22.4174 21.3031 22.4929C21.2276 22.4929 21.2276 22.5685 21.2276 22.5685C21.3031 22.5685 21.3031 22.5685 21.3031 22.5685C21.3787 22.4929 21.4542 22.4929 21.4542 22.4929C21.4542 22.4929 21.5297 22.4929 21.5297 22.4174C21.6053 22.4174 21.6053 22.3418 21.6808 22.3418C21.6808 22.2663 21.7564 22.2663 21.7564 22.3418C21.6808 22.4929 21.5297 22.5685 21.4542 22.7196C21.5297 22.7196 21.6053 22.644 21.6808 22.5685C21.6053 22.7196 21.6808 22.5685 21.6808 22.7196ZM23.2672 21.5864C23.1917 21.662 23.1917 21.7375 23.1161 21.813C23.0406 21.8886 22.6629 21.9641 22.8895 21.813C22.8895 21.813 22.9651 21.813 22.9651 21.7375L23.0406 21.662C23.1917 21.662 23.1917 21.5864 23.2672 21.5864Z" fill="#002F6C"/>
<path fill-rule="evenodd" clip-rule="evenodd" d="M29.5373 21.1332C29.4618 21.2087 29.3862 21.2087 29.3107 21.2843L29.2352 21.3598C29.2352 21.3598 29.1596 21.4354 29.1596 21.5109H29.2352H29.3107C29.3107 21.5109 29.3862 21.5109 29.4618 21.4354C29.4618 21.3598 29.5373 21.3598 29.6129 21.3598V21.1332H29.5373Z" fill="#002F6C"/>
<path fill-rule="evenodd" clip-rule="evenodd" d="M29.5373 20.7554C29.3862 20.9065 29.1596 21.0575 29.0085 21.1331C28.8574 21.2086 28.7063 21.2842 28.6308 21.4353H28.7063C28.7819 21.4353 28.8574 21.3597 28.8574 21.3597C29.1596 21.2086 29.3862 20.982 29.5373 20.7554Z" fill="#002F6C"/>
<path d="M11.0293 28.9896C11.0293 28.9896 11.1048 30.2739 12.5401 31.1804V28.9896H11.0293Z" fill="#BA0C2F"/>
<path d="M13.4466 28.9896H15.5619V32.4646C15.5619 32.4646 14.2021 32.1624 13.4466 31.7092V28.9896Z" fill="#BA0C2F"/>
<path d="M16.3173 28.9896V32.6157C16.9216 32.7668 17.6771 32.7668 18.4325 33.0689V29.0652H16.3173V28.9896Z" fill="#BA0C2F"/>
<path d="M29.6129 28.9896C29.6129 28.9896 29.5373 30.2739 28.102 31.1804V28.9896H29.6129Z" fill="#BA0C2F"/>
<path d="M27.271 28.9896H25.1558V32.4646C25.1558 32.4646 26.5156 32.1624 27.271 31.7092V28.9896Z" fill="#BA0C2F"/>
<path d="M24.3248 28.9896V32.6157C23.7205 32.7668 22.9651 32.7668 22.2096 33.0689V29.0652H24.3248V28.9896Z" fill="#BA0C2F"/>
<path d="M20.3211 34.3532C19.9434 33.6733 19.2635 33.3711 19.2635 33.3711V28.9896H21.3031V33.3711C21.3787 33.3711 20.6988 33.6733 20.3211 34.3532Z" fill="#BA0C2F"/>
<path d="M12.9179 26.8745H13.6733L13.0689 27.2522L13.2956 27.9321L12.6912 27.5544L12.1624 27.9321L12.3891 27.2522L11.7847 26.8745H12.4646L12.6912 26.1946L12.9179 26.8745Z" fill="white"/>
<path d="M15.4863 26.8745H16.2417L15.6374 27.2522L15.864 27.9321L15.2597 27.5544L14.7309 27.9321H14.6553L14.882 27.2522L14.3532 26.8745H15.0331L15.2597 26.1946L15.4863 26.8745Z" fill="white"/>
<path d="M18.0548 26.8745H18.7347L18.2059 27.2522L18.4325 27.9321L17.8282 27.5544L17.2238 27.9321L17.4504 27.2522L16.9216 26.8745H17.6015L17.8282 26.1946L18.0548 26.8745Z" fill="white"/>
<path d="M20.6232 26.8745H21.3031L20.6988 27.2522L20.9254 27.9321L20.3966 27.5544L19.7923 27.9321L20.0189 27.2522L19.4145 26.8745H20.17L20.3966 26.1946L20.6232 26.8745Z" fill="white"/>
<path d="M23.1161 26.8745H23.8716L23.2672 27.2522L23.4939 27.9321L22.9651 27.5544L22.3607 27.9321L22.5873 27.2522L21.983 26.8745H22.7384L22.9651 26.1946L23.1161 26.8745Z" fill="white"/>
<path d="M25.6846 26.8745H26.44L25.8357 27.2522L26.0623 27.9321L25.458 27.5544L24.9292 27.9321L25.1558 27.2522L24.5515 26.8745H25.3069L25.458 26.1946L25.6846 26.8745Z" fill="white"/>
<path d="M28.2531 26.8745H29.0085L28.4042 27.2522L28.6308 27.9321L28.0264 27.5544L27.4976 27.9321L27.7243 27.2522L27.1199 26.8745H27.7998L28.0264 26.1946L28.2531 26.8745Z" fill="white"/>
<path d="M16.0907 9.95276C16.0907 11.1614 16.3173 13.2766 14.5798 13.05C12.7668 13.2011 13.0689 11.1614 13.0689 9.95276H13.8244C13.8999 10.5571 13.4466 12.5212 14.5798 12.3701C15.7129 12.5212 15.2597 10.5571 15.3352 9.95276H16.0907Z" fill="white"/>
<path d="M18.8102 10.7837C18.2814 10.5571 17.6015 10.2549 17.3749 10.7837C17.3749 11.237 18.9613 11.0859 18.9613 12.1435C19.0369 13.2011 17.2994 13.2011 16.695 12.7478V12.068C17.2238 12.4457 17.9792 12.7478 18.2059 12.1435C18.2059 11.6147 16.6195 11.8413 16.6195 10.7082C16.6195 9.72612 18.0548 9.65058 18.8102 10.1038V10.7837Z" fill="white"/>
<path d="M22.5873 12.9745H21.7564L21.5297 12.3701H20.17L19.9433 12.9745H19.1124L20.321 9.95276H21.2276L22.5873 12.9745ZM20.8498 10.7082L20.3966 11.8413H21.3031L20.8498 10.7082Z" fill="white"/>
<path d="M23.7205 9.95276H22.965V12.9745H23.7205V9.95276Z" fill="white"/>
<path d="M25.8357 9.95284C28.102 9.87729 28.102 13.1256 25.7602 12.9746H24.4759V9.95284H25.8357ZM25.2314 12.4458C27.1955 12.8235 27.1955 10.1039 25.2314 10.4816V12.4458Z" fill="white"/>
</svg>
